<svg width="40" height="40" viewBox="0 0 40 40" fill="none" xmlns="http://www.w3.org/2000/svg">
<path d="M21.5625 4.64172C21.0433 4.58955 20.5218 4.56348 20 4.56359C15.9059 4.56359 11.9795 6.18996 9.0846 9.0849C6.18966 11.9798 4.56329 15.9062 4.56329 20.0003C4.56329 24.0944 6.18966 28.0208 9.0846 30.9157C11.9795 33.8107 15.9059 35.437 20 35.437C20.5218 35.4371 21.0433 35.4111 21.5625 35.3589C17.761 34.9683 14.2395 33.1817 11.6791 30.3448C9.1187 27.5078 7.70143 23.8221 7.70143 20.0006C7.70143 16.1791 9.1187 12.4934 11.6791 9.65646C14.2395 6.81952 17.761 5.03294 21.5625 4.64234V4.64172Z" fill="#FCEED9"/>
<path d="M20 1.17187C15.009 1.17446 10.2235 3.15958 6.6961 6.69052C3.16874 10.2215 1.18849 15.009 1.19098 20C1.19324 23.0925 1.95801 26.1368 3.41756 28.8633C4.87711 31.5897 6.98641 33.9142 9.5587 35.631C12.131 37.3477 15.0869 38.4037 18.1647 38.7055C21.2425 39.0072 24.3472 38.5454 27.2039 37.361C30.0606 36.1765 32.5812 34.3059 34.5425 31.9148C36.5038 29.5238 37.8453 26.686 38.4481 23.6528C39.051 20.6196 38.8966 17.4845 37.9987 14.5252C37.1008 11.5658 35.487 8.87355 33.3004 6.68672C31.5586 4.93311 29.4861 3.54268 27.203 2.59601C24.9199 1.64934 22.4716 1.16528 20 1.17187ZM32.6368 32.6508C29.28 35.9945 24.7334 37.8692 19.9954 37.8632C15.2574 37.8573 10.7155 35.9711 7.36704 32.619C4.01862 29.2669 2.13748 24.7229 2.13674 19.9849C2.136 15.247 4.01572 10.7024 7.36309 7.34922C10.7226 4.01872 15.2651 2.15523 19.9957 2.16682C24.7263 2.17841 29.2596 4.06413 32.6028 7.41105C35.946 10.758 37.8266 15.2933 37.833 20.0239C37.8393 24.7546 35.9708 29.2949 32.6365 32.6508H32.6368Z" fill="#0A267D"/>
<path d="M20 4.09438C11.2385 4.09438 4.11044 11.2296 4.11044 20C4.11044 28.7704 11.2385 35.9056 20 35.9056C28.7615 35.9056 35.8895 28.7704 35.8895 20C35.8895 11.2296 28.7615 4.09438 20 4.09438ZM34.9439 20.4688C34.8326 24.1091 33.3937 27.583 30.8984 30.2359L29.7775 29.115L29.1147 29.7778L30.2363 30.8995C27.5872 33.4029 24.1118 34.8477 20.4687 34.96V33.3594H19.5312V34.9602C15.888 34.8479 12.4126 33.4031 9.76341 30.8996L10.885 29.778L10.2222 29.1152L9.10154 30.2359C6.60624 27.583 5.16737 24.1091 5.05607 20.4688H6.6406V19.5313H5.05607C5.16737 15.8909 6.60624 12.417 9.10154 9.76414L10.2224 10.885L10.8852 10.2222L9.76365 9.10055C12.4127 6.59709 15.8881 5.15232 19.5312 5.04V6.64063H20.4687V5.04C24.1119 5.15227 27.5874 6.59704 30.2365 9.10055L29.115 10.2222L29.7778 10.885L30.8984 9.76414C33.3937 12.417 34.8326 15.8909 34.9439 19.5313H33.3593V20.4688H34.9439Z" fill="#0A267D"/>
<path d="M13.0831 9.68055L13.6056 10.4589C14.0459 10.1634 14.5059 9.89869 14.9826 9.66656L14.5724 8.82352C14.0569 9.0746 13.5592 9.36096 13.0831 9.68055Z" fill="#0A267D"/>
<path d="M7.57809 20H8.51559C8.5121 18.2771 8.8979 16.5756 9.64417 15.0227C10.3904 13.4698 11.4779 12.1056 12.8254 11.0319L12.2394 10.3002C10.782 11.4615 9.60582 12.937 8.79866 14.6166C7.99151 16.2963 7.57427 18.1365 7.57809 20Z" fill="#0A267D"/>
<path d="M30.1187 17.9364L22.0406 19.205C21.9111 18.8706 21.7013 18.5732 21.4298 18.3389C21.1582 18.1047 20.8333 17.9408 20.4835 17.8617C20.1337 17.7827 19.7698 17.7908 19.4239 17.8855C19.0781 17.9802 18.7608 18.1585 18.5 18.4047L13.932 15.2766L13.4024 16.0501L17.97 19.1779C17.8505 19.4724 17.7964 19.7893 17.8116 20.1067C17.8269 20.4241 17.911 20.7345 18.0581 21.0161C18.2053 21.2978 18.4119 21.5441 18.6638 21.7379C18.9156 21.9317 19.2066 22.0683 19.5166 22.1384C19.8266 22.2085 20.1481 22.2103 20.4588 22.1437C20.7695 22.077 21.0621 21.9436 21.3161 21.7526C21.57 21.5616 21.7794 21.3177 21.9297 21.0376C22.08 20.7576 22.1675 20.4483 22.1863 20.131L30.2644 18.8624L30.1187 17.9364ZM20 21.2549C19.7517 21.2552 19.509 21.1819 19.3024 21.0443C19.0957 20.9066 18.9346 20.7108 18.8394 20.4815C18.7441 20.2523 18.719 19.9999 18.7672 19.7564C18.8154 19.5128 18.9347 19.289 19.1102 19.1134C19.2856 18.9377 19.5092 18.818 19.7526 18.7694C19.9961 18.7208 20.2485 18.7456 20.4779 18.8405C20.7073 18.9354 20.9034 19.0963 21.0414 19.3027C21.1793 19.5091 21.253 19.7517 21.253 20C21.2529 20.3325 21.1209 20.6513 20.886 20.8865C20.6511 21.1218 20.3325 21.2542 20 21.2549Z" fill="#FAB348"/>
</svg>
