<svg width="40" height="40" viewBox="0 0 40 40" fill="none" xmlns="http://www.w3.org/2000/svg">
<path d="M10.0097 25.6829C8.55469 24.1328 7.48508 22.4384 6.83141 20.6467C6.1647 18.8512 5.88298 16.9356 6.00453 15.0241C6.23498 11.517 7.72707 8.21189 10.2051 5.71945C12.3719 3.53275 15.2212 2.15252 18.2803 1.80773C17.7616 1.74865 17.2399 1.71894 16.7178 1.71875C14.9264 1.71348 13.1518 2.06447 11.4972 2.75129C9.84264 3.43811 8.34116 4.44706 7.08008 5.71945C4.60207 8.21189 3.10998 11.517 2.87953 15.0241C2.75798 16.9356 3.0397 18.8512 3.70641 20.6467C4.36008 22.4384 5.42969 24.1328 6.88469 25.6829L16.7178 36.1566L18.2803 34.4926L10.0097 25.6829Z" fill="#FCEED9"/>
<path d="M29.7466 19.5423C29.8539 19.5593 29.9608 19.5775 30.067 19.598C30.0768 19.563 30.0859 19.5276 30.0954 19.4929C29.9785 19.5073 29.8623 19.5237 29.7466 19.5423Z" fill="#FCEED9"/>
<path d="M22.3488 29.3184C22.3515 27.2129 23.0941 25.1754 24.4469 23.562C25.7996 21.9486 27.6764 20.862 29.7492 20.4922C28.4601 20.2646 27.1369 20.322 25.8724 20.6606C24.608 20.9991 23.4331 21.6105 22.4302 22.4518C21.4274 23.2931 20.621 24.3438 20.0677 25.5301C19.5144 26.7164 19.2277 28.0095 19.2277 29.3184C19.2277 30.6274 19.5144 31.9205 20.0677 33.1068C20.621 34.2931 21.4274 35.3438 22.4302 36.1851C23.4331 37.0264 24.608 37.6378 25.8724 37.9763C27.1369 38.3148 28.4601 38.3723 29.7492 38.1447C27.6764 37.7748 25.7996 36.6882 24.4469 35.0748C23.0941 33.4614 22.3515 31.4238 22.3488 29.3184Z" fill="#FCEED9"/>
<path d="M16.7178 8.09781C13.1006 8.09781 10.1584 11.1134 10.1584 14.8209C10.1584 18.5283 13.1009 21.5438 16.7178 21.5438C20.3347 21.5438 23.2772 18.5282 23.2772 14.8209C23.2772 11.1135 20.3347 8.09781 16.7178 8.09781ZM16.7178 20.6063C13.6179 20.6063 11.0959 18.0109 11.0959 14.8209C11.0959 11.6308 13.6179 9.03531 16.7178 9.03531C19.8177 9.03531 22.3397 11.6307 22.3397 14.8209C22.3397 18.011 19.8177 20.6063 16.7178 20.6063Z" fill="#0A267D"/>
<path d="M27.0197 5.05773C25.6683 3.70224 24.0627 2.62676 22.2949 1.89294C20.5271 1.15912 18.6319 0.781385 16.7179 0.781385C14.8038 0.781385 12.9086 1.15912 11.1408 1.89294C9.37299 2.62676 7.7674 3.70224 6.41602 5.05773C3.77813 7.71053 2.18968 11.2285 1.94423 14.9616C1.81367 17.0034 2.114 19.0499 2.82571 20.9681C3.52305 22.8793 4.65876 24.6816 6.20126 26.3245L16.3761 37.1623C16.4199 37.2089 16.4729 37.2462 16.5316 37.2716C16.5904 37.297 16.6538 37.3101 16.7178 37.3101C16.7819 37.3101 16.8452 37.297 16.904 37.2716C16.9628 37.2462 17.0157 37.2089 17.0595 37.1623L20.1156 33.9072C20.1585 33.8625 20.1922 33.8097 20.2146 33.7518C20.237 33.694 20.2477 33.6323 20.2461 33.5703C20.2445 33.5084 20.2306 33.4473 20.2053 33.3907C20.1799 33.3341 20.1436 33.2831 20.0984 33.2407C20.0532 33.1982 20 33.1652 19.9419 33.1434C19.8838 33.1217 19.822 33.1117 19.7601 33.114C19.6981 33.1163 19.6372 33.1309 19.5809 33.1569C19.5246 33.1829 19.474 33.2199 19.4321 33.2655L16.7178 36.1566L6.88469 25.6829C5.42969 24.1328 4.36009 22.4384 3.70641 20.6467C3.0397 18.8512 2.75798 16.9356 2.87954 15.0241C3.10998 11.517 4.60207 8.21189 7.08009 5.71945C8.34436 4.45136 9.84647 3.44523 11.5003 2.75872C13.1541 2.07222 14.9272 1.71884 16.7179 1.71884C18.5085 1.71884 20.2816 2.07222 21.9354 2.75872C23.5893 3.44523 25.0914 4.45136 26.3556 5.71945C28.8336 8.21189 30.3257 11.5171 30.556 15.0241C30.6639 16.7065 30.4577 18.3943 29.9479 20.0012C29.9295 20.0599 29.9229 20.1217 29.9284 20.183C29.9339 20.2443 29.9514 20.304 29.98 20.3585C30.0085 20.413 30.0476 20.4614 30.0948 20.5009C30.1421 20.5403 30.1966 20.5701 30.2554 20.5885C30.3141 20.6068 30.3759 20.6135 30.4372 20.608C30.4985 20.6025 30.5582 20.5849 30.6127 20.5564C30.6672 20.5278 30.7156 20.4888 30.7551 20.4416C30.7945 20.3943 30.8243 20.3398 30.8427 20.281C31.387 18.5635 31.6069 16.7596 31.4911 14.9616C31.2457 11.2286 29.6574 7.71059 27.0197 5.05773Z" fill="#0A267D"/>
<path d="M28.1866 19.4181C26.2285 19.4181 24.3144 19.9988 22.6863 21.0866C21.0582 22.1745 19.7893 23.7207 19.0399 25.5298C18.2906 27.3388 18.0945 29.3294 18.4766 31.2499C18.8586 33.1704 19.8015 34.9345 21.1861 36.319C22.5707 37.7036 24.3347 38.6465 26.2552 39.0285C28.1757 39.4105 30.1663 39.2145 31.9754 38.4651C33.7844 37.7158 35.3306 36.4468 36.4185 34.8187C37.5063 33.1906 38.087 31.2765 38.0869 29.3184C38.084 26.6936 37.0399 24.1771 35.1839 22.3211C33.3279 20.4651 30.8114 19.4211 28.1866 19.4181ZM28.1866 38.2812C26.414 38.2812 24.6811 37.7556 23.2072 36.7707C21.7332 35.7859 20.5845 34.3861 19.9061 32.7484C19.2277 31.1106 19.0502 29.3085 19.396 27.5699C19.7419 25.8313 20.5955 24.2343 21.8489 22.9808C23.1024 21.7273 24.6994 20.8737 26.438 20.5279C28.1766 20.182 29.9788 20.3595 31.6165 21.0379C33.2542 21.7162 34.654 22.865 35.6389 24.3389C36.6238 25.8128 37.1494 27.5457 37.1494 29.3184C37.1468 31.6946 36.2016 33.9728 34.5214 35.6531C32.8411 37.3334 30.5629 38.2786 28.1866 38.2812Z" fill="#FAB348"/>
<path d="M26.9027 22.379C26.7783 22.379 26.6591 22.4284 26.5712 22.5163C26.4833 22.6042 26.4339 22.7234 26.4339 22.8477V25.5938C26.4338 25.7321 26.3997 25.8682 26.3346 25.9902C26.2694 26.1122 26.1752 26.2163 26.0602 26.2932V22.8479C26.0602 22.7236 26.0109 22.6043 25.9229 22.5164C25.835 22.4285 25.7158 22.3791 25.5915 22.3791C25.4672 22.3791 25.3479 22.4285 25.26 22.5164C25.1721 22.6043 25.1227 22.7236 25.1227 22.8479V26.2932C25.0078 26.2163 24.9136 26.1122 24.8485 25.9902C24.7833 25.8682 24.7492 25.7321 24.7491 25.5938V22.8477C24.7491 22.7233 24.6998 22.6041 24.6119 22.5162C24.5239 22.4283 24.4047 22.3789 24.2804 22.3789C24.1561 22.3789 24.0368 22.4283 23.9489 22.5162C23.861 22.6041 23.8116 22.7233 23.8116 22.8477V25.5938C23.8122 25.9839 23.9407 26.3632 24.1776 26.6733C24.4144 26.9834 24.7464 27.2072 25.1227 27.3105V28.9498H24.6852C24.5609 28.9498 24.4417 28.9992 24.3538 29.0871C24.2659 29.175 24.2165 29.2942 24.2165 29.4185V34.9586C24.2237 35.3184 24.3717 35.6611 24.6287 35.9131C24.8857 36.165 25.2313 36.3062 25.5912 36.3062C25.9511 36.3062 26.2967 36.165 26.5537 35.9131C26.8108 35.6611 26.9588 35.3184 26.9659 34.9586V29.4186C26.9659 29.2943 26.9166 29.175 26.8286 29.0871C26.7407 28.9992 26.6215 28.9498 26.4972 28.9498H26.0597V27.3105C26.4361 27.2074 26.7683 26.9836 27.0052 26.6735C27.2422 26.3634 27.3708 25.984 27.3714 25.5938V22.8477C27.3714 22.7233 27.322 22.6041 27.2341 22.5162C27.1462 22.4284 27.027 22.379 26.9027 22.379ZM26.0288 34.9586C26.0247 35.0719 25.9769 35.1792 25.8954 35.2579C25.8138 35.3366 25.7049 35.3806 25.5915 35.3806C25.4782 35.3806 25.3692 35.3366 25.2877 35.2579C25.2061 35.1792 25.1583 35.0719 25.1543 34.9586V29.8873H26.0288V34.9586Z" fill="#FAB348"/>
<path d="M32.0881 22.2006L30.7444 22.2145C30.249 22.228 29.7782 22.4337 29.4316 22.7879C29.085 23.1422 28.8897 23.6173 28.887 24.1129V35.1328C28.8856 35.3048 28.9184 35.4754 28.9832 35.6346C29.0481 35.7939 29.1439 35.9388 29.2651 36.0609C29.3862 36.183 29.5303 36.2799 29.6891 36.346C29.8479 36.4121 30.0182 36.4462 30.1902 36.4462C30.3622 36.4462 30.5325 36.4121 30.6913 36.346C30.8501 36.2799 30.9942 36.183 31.1153 36.0609C31.2365 35.9388 31.3323 35.7939 31.3972 35.6346C31.462 35.4754 31.4948 35.3048 31.4934 35.1328V31.5272H32.0933C32.2176 31.5272 32.3368 31.4778 32.4247 31.3899C32.5127 31.302 32.562 31.1828 32.562 31.0584V22.6694C32.562 22.6074 32.5498 22.5461 32.5259 22.4889C32.5021 22.4317 32.4671 22.3798 32.4231 22.3362C32.3336 22.2487 32.2133 22.2 32.0881 22.2006ZM30.5556 35.1328C30.5563 35.1813 30.5473 35.2294 30.5293 35.2744C30.5112 35.3194 30.4844 35.3604 30.4503 35.3949C30.4163 35.4294 30.3757 35.4569 30.331 35.4756C30.2863 35.4943 30.2383 35.5039 30.1898 35.5039C30.1413 35.5039 30.0933 35.4943 30.0486 35.4756C30.0039 35.4569 29.9633 35.4294 29.9293 35.3949C29.8952 35.3604 29.8684 35.3194 29.8504 35.2744C29.8323 35.2294 29.8234 35.1813 29.8241 35.1328V31.5272H30.5556V35.1328ZM31.6241 30.5896H29.8241V24.113C29.8252 23.863 29.9233 23.6231 30.0977 23.4439C30.272 23.2647 30.5091 23.1601 30.7591 23.1521L31.6241 23.1431V30.5896Z" fill="#FAB348"/>
</svg>
