<svg width="298" height="74" viewBox="0 0 298 74" fill="none" xmlns="http://www.w3.org/2000/svg">
<path d="M89.4648 24.707V22.5098H93.9648V30.5254H89.4648C89.2773 29.2363 88.8555 28.2695 88.1992 27.625C87.5547 26.9688 86.7168 26.6406 85.6855 26.6406C84.959 26.6406 84.3379 26.8457 83.8223 27.2559C83.3066 27.666 83.0488 28.1816 83.0488 28.8027C83.0488 29.3535 83.2129 29.8281 83.541 30.2266C83.8691 30.625 84.291 30.9648 84.8066 31.2461C85.3223 31.5156 86.0957 31.8789 87.127 32.3359L88.1992 32.793C90.5312 33.8008 92.2891 34.9844 93.4727 36.3438C94.668 37.7031 95.2656 39.4023 95.2656 41.4414C95.2656 43.8672 94.5684 45.7891 93.1738 47.207C91.7793 48.6133 89.9043 49.3164 87.5488 49.3164C85.252 49.3164 83.4648 48.4551 82.1875 46.7324V49H77.6875V40H82.1875C82.2812 41.5586 82.6797 42.748 83.3828 43.5684C84.0977 44.377 85.0586 44.7812 86.2656 44.7812C87.0742 44.7812 87.7539 44.5059 88.3047 43.9551C88.8672 43.4043 89.1484 42.7363 89.1484 41.9512C89.1484 41.1543 88.8262 40.4277 88.1816 39.7715C87.5488 39.1035 86.4648 38.4355 84.9297 37.7676C82.3164 36.6191 80.418 35.3828 79.2344 34.0586C78.0625 32.7344 77.4766 31.2109 77.4766 29.4883C77.4766 28.1406 77.7871 26.9102 78.4082 25.7969C79.0293 24.6836 79.8848 23.8105 80.9746 23.1777C82.0762 22.5332 83.2715 22.2109 84.5605 22.2109C85.5918 22.2109 86.5293 22.4219 87.373 22.8438C88.2168 23.2656 88.9141 23.8867 89.4648 24.707ZM106.375 25.2695C106.375 26.207 106.053 26.9863 105.408 27.6074C104.775 28.2168 104.02 28.5215 103.141 28.5215C102.25 28.5215 101.482 28.2051 100.838 27.5723C100.205 26.9277 99.8887 26.1602 99.8887 25.2695C99.8887 24.3906 100.205 23.6348 100.838 23.002C101.482 22.3574 102.25 22.0352 103.141 22.0352C104.02 22.0352 104.775 22.3574 105.408 23.002C106.053 23.6348 106.375 24.3906 106.375 25.2695ZM108.748 44.7461V49H97.3398V44.7461H100.152V34.8496H97.3398V30.5254H106.006V44.7461H108.748ZM130.844 32.793C133.246 31.1172 135.73 30.2793 138.297 30.2793C139.809 30.2793 141.016 30.5137 141.918 30.9824C142.82 31.4512 143.482 32.2129 143.904 33.2676C144.326 34.3223 144.537 35.7402 144.537 37.5215V44.7461H147.596V49H138.631V38.084C138.631 36.2441 137.799 35.3242 136.135 35.3242C134.939 35.3242 133.527 35.7285 131.898 36.5371V44.7461H134.922V49H125.992V38.2773C125.992 36.3086 125.189 35.3242 123.584 35.3242C122.447 35.3242 121.029 35.7285 119.33 36.5371V44.7461H122.354V49H110.4V44.7461H113.424V34.8496H110.4V30.5254H119.33V32.0723C121.275 30.877 123.268 30.2793 125.307 30.2793C127.686 30.2793 129.531 31.1172 130.844 32.793ZM170.289 39.9648C170.289 41.7695 169.967 43.3926 169.322 44.834C168.678 46.2637 167.746 47.3887 166.527 48.209C165.32 49.0293 163.926 49.4395 162.344 49.4395C160.398 49.4395 158.6 48.6719 156.947 47.1367V53.0605H160.604V57.3145H147.947V53.0605H151.076V34.8496H148.439V30.5254H156.947V32.8281C158.576 31.1289 160.398 30.2793 162.414 30.2793C164.043 30.2793 165.449 30.707 166.633 31.5625C167.828 32.4062 168.736 33.5605 169.357 35.0254C169.979 36.4902 170.289 38.1367 170.289 39.9648ZM160.639 44.7812C161.799 44.7812 162.689 44.3535 163.311 43.498C163.932 42.6309 164.242 41.4062 164.242 39.8242C164.242 38.3125 163.926 37.1348 163.293 36.291C162.66 35.4473 161.752 35.0254 160.568 35.0254C159.443 35.0254 158.541 35.4648 157.861 36.3438C157.193 37.2227 156.859 38.4062 156.859 39.8945C156.859 41.2891 157.205 42.4551 157.896 43.3926C158.6 44.3184 159.514 44.7812 160.639 44.7812ZM183.051 44.7461V49H171.643V44.7461H174.525V26.7461H171.643V22.5098H180.432V44.7461H183.051ZM204.004 41.002H190.223C190.363 42.4199 190.85 43.5449 191.682 44.377C192.525 45.1973 193.609 45.6074 194.934 45.6074C196.398 45.6074 197.828 44.8809 199.223 43.4277L203.793 44.9043C202.785 46.416 201.537 47.5527 200.049 48.3145C198.561 49.0645 196.797 49.4395 194.758 49.4395C192.719 49.4395 190.914 49.0586 189.344 48.2969C187.785 47.5234 186.572 46.4336 185.705 45.0273C184.85 43.6211 184.422 41.9688 184.422 40.0703C184.422 38.1953 184.867 36.4961 185.758 34.9727C186.66 33.4492 187.873 32.2598 189.396 31.4043C190.932 30.5371 192.596 30.1035 194.389 30.1035C196.334 30.1035 198.027 30.5547 199.469 31.457C200.91 32.3477 202.018 33.6191 202.791 35.2715C203.576 36.9121 203.98 38.8223 204.004 41.002ZM194.107 34.0234C193.053 34.0234 192.203 34.3281 191.559 34.9375C190.926 35.5469 190.527 36.4785 190.363 37.7324H198.062C197.898 36.6309 197.447 35.7402 196.709 35.0605C195.982 34.3691 195.115 34.0234 194.107 34.0234ZM240.074 30.9297C240.074 33.8125 239.172 35.9395 237.367 37.3105C235.574 38.6699 232.779 39.3496 228.982 39.3496H226.205V44.5H229.914V49H215.957V44.5H219.297V27.0098H215.957V22.5098H228.842C232.627 22.5098 235.445 23.2012 237.297 24.584C239.148 25.9551 240.074 28.0703 240.074 30.9297ZM232.797 30.9297C232.797 29.8281 232.574 28.9902 232.129 28.416C231.684 27.8301 231.039 27.4492 230.195 27.2734C229.363 27.0977 228.396 27.0098 227.295 27.0098H226.205V34.9551H227.295C228.76 34.9551 229.891 34.8086 230.688 34.5156C231.496 34.2109 232.047 33.7715 232.34 33.1973C232.645 32.623 232.797 31.8672 232.797 30.9297ZM258.795 37.9082V44.7461H261.783V49H252.924V47.5586C251.248 48.707 249.572 49.2812 247.896 49.2812C245.869 49.2812 244.246 48.7598 243.027 47.7168C241.809 46.6738 241.199 45.2676 241.199 43.498C241.199 41.623 241.879 40.123 243.238 38.998C244.609 37.8613 246.426 37.293 248.688 37.293C249.473 37.293 250.17 37.3809 250.779 37.5566C251.4 37.7207 252.115 38.0078 252.924 38.418V36.9414C252.924 36.0039 252.631 35.2539 252.045 34.6914C251.459 34.1289 250.58 33.8477 249.408 33.8477C248.131 33.8477 247 34.3398 246.016 35.3242L241.27 34.4629C242.711 31.5566 245.688 30.1035 250.199 30.1035C253.293 30.1035 255.496 30.7422 256.809 32.0195C258.133 33.2852 258.795 35.248 258.795 37.9082ZM249.215 45.6074C250.27 45.6074 251.506 44.9746 252.924 43.709V42.0566C251.658 41.2363 250.498 40.8262 249.443 40.8262C248.6 40.8262 247.955 41.0254 247.51 41.4238C247.064 41.8223 246.842 42.3906 246.842 43.1289C246.842 44.7812 247.633 45.6074 249.215 45.6074ZM275.354 30.5254V34.8496H271.943V42.918C271.943 43.4922 272.055 43.9258 272.277 44.2188C272.5 44.5 272.916 44.6406 273.525 44.6406C274.029 44.6406 274.639 44.5117 275.354 44.2539V48.3496C273.771 48.9707 272.283 49.2812 270.889 49.2812C269.283 49.2812 268.076 48.877 267.268 48.0684C266.471 47.248 266.072 46.0938 266.072 44.6055V34.8496H263.734V30.5254H266.072V27.6602L271.943 23.4414V30.5254H275.354ZM297.062 41.002H283.281C283.422 42.4199 283.908 43.5449 284.74 44.377C285.584 45.1973 286.668 45.6074 287.992 45.6074C289.457 45.6074 290.887 44.8809 292.281 43.4277L296.852 44.9043C295.844 46.416 294.596 47.5527 293.107 48.3145C291.619 49.0645 289.855 49.4395 287.816 49.4395C285.777 49.4395 283.973 49.0586 282.402 48.2969C280.844 47.5234 279.631 46.4336 278.764 45.0273C277.908 43.6211 277.48 41.9688 277.48 40.0703C277.48 38.1953 277.926 36.4961 278.816 34.9727C279.719 33.4492 280.932 32.2598 282.455 31.4043C283.99 30.5371 285.654 30.1035 287.447 30.1035C289.393 30.1035 291.086 30.5547 292.527 31.457C293.969 32.3477 295.076 33.6191 295.85 35.2715C296.635 36.9121 297.039 38.8223 297.062 41.002ZM287.166 34.0234C286.111 34.0234 285.262 34.3281 284.617 34.9375C283.984 35.5469 283.586 36.4785 283.422 37.7324H291.121C290.957 36.6309 290.506 35.7402 289.768 35.0605C289.041 34.3691 288.174 34.0234 287.166 34.0234Z" fill="#0A267D"/>
<path d="M54.0493 35.2776C53.963 35.283 53.8785 35.3054 53.8009 35.3434C53.7232 35.3815 53.6538 35.4345 53.5965 35.4993C53.5393 35.5642 53.4955 35.6397 53.4675 35.7216C53.4394 35.8034 53.4278 35.8899 53.4333 35.9763C53.6913 40.1366 52.3621 44.24 49.7139 47.459C47.0656 50.6779 43.2953 52.7729 39.1632 53.3215C39.0768 53.3321 38.9933 53.3598 38.9177 53.4028C38.842 53.4459 38.7756 53.5035 38.7224 53.5724C38.6691 53.6413 38.6301 53.72 38.6075 53.8041C38.5848 53.8881 38.5791 53.9759 38.5906 54.0622C38.6021 54.1485 38.6306 54.2316 38.6745 54.3068C38.7183 54.382 38.7766 54.4478 38.8461 54.5003C38.9155 54.5528 38.9946 54.5911 39.0789 54.6128C39.1632 54.6346 39.251 54.6394 39.3372 54.627C43.7999 54.0345 47.872 51.7718 50.732 48.2952C53.5921 44.8185 55.0274 40.3867 54.7484 35.8934C54.743 35.8071 54.7206 35.7226 54.6825 35.6449C54.6444 35.5673 54.5914 35.4978 54.5265 35.4406C54.4615 35.3834 54.386 35.3396 54.3041 35.3116C54.2222 35.2837 54.1356 35.2721 54.0493 35.2776Z" fill="#FAB348"/>
<path d="M41.7038 21.2187C44.6783 22.1111 47.3423 23.8211 49.3922 26.1539C49.4492 26.219 49.5184 26.2722 49.5959 26.3105C49.6734 26.3489 49.7578 26.3715 49.8441 26.3773C49.9303 26.383 50.0169 26.3717 50.0988 26.3439C50.1807 26.3162 50.2564 26.2726 50.3215 26.2156C50.3865 26.1587 50.4398 26.0895 50.4781 26.0119C50.5164 25.9344 50.5391 25.8501 50.5448 25.7638C50.5505 25.6775 50.5392 25.5909 50.5115 25.509C50.4837 25.4271 50.4401 25.3514 50.3832 25.2864C48.1699 22.767 45.2932 20.9203 42.0812 19.9569C41.9138 19.9068 41.7335 19.9253 41.5798 20.0082C41.426 20.0912 41.3116 20.2318 41.2615 20.3991C41.2115 20.5665 41.23 20.7468 41.3129 20.9005C41.3959 21.0542 41.5365 21.1687 41.7038 21.2187Z" fill="#FAB348"/>
<path d="M21.7591 43.2277C20.1868 39.3775 20.1293 35.0751 21.5983 31.1844C23.0672 27.2937 25.9537 24.1027 29.6782 22.2524C29.8347 22.1749 29.954 22.0383 30.0099 21.8729C30.0657 21.7074 30.0536 21.5265 29.9761 21.37C29.8985 21.2135 29.762 21.0941 29.5965 21.0383C29.4311 20.9824 29.2502 20.9946 29.0936 21.0721C25.071 23.0701 21.9532 26.5162 20.3664 30.7181C18.7797 34.9201 18.8415 39.5668 20.5394 43.725C20.6054 43.8868 20.7329 44.0157 20.8939 44.0834C21.0549 44.1511 21.2362 44.1521 21.398 44.0861C21.5597 44.0202 21.6886 43.8926 21.7563 43.7316C21.824 43.5706 21.825 43.3893 21.759 43.2276L21.7591 43.2277Z" fill="#FAB348"/>
<path d="M36.1669 53.4462C33.5528 53.3113 31.0083 52.5563 28.7437 51.2436C26.4791 49.9308 24.5593 48.098 23.1432 45.8966C23.0969 45.8229 23.0366 45.7591 22.9655 45.7088C22.8945 45.6585 22.8142 45.6229 22.7292 45.6038C22.6443 45.5848 22.5565 45.5828 22.4708 45.5979C22.3851 45.6131 22.3032 45.645 22.2299 45.692C22.1567 45.7389 22.0934 45.7999 22.0439 45.8715C21.9943 45.943 21.9594 46.0236 21.9412 46.1087C21.923 46.1938 21.9219 46.2817 21.9379 46.3673C21.9538 46.4528 21.9866 46.5343 22.0342 46.6071C23.5697 48.9936 25.6526 50.9791 28.1099 52.3986C30.5459 53.815 33.2866 54.6254 36.1012 54.7616C36.2746 54.7684 36.4436 54.7066 36.5716 54.5895C36.6996 54.4725 36.7763 54.3096 36.7849 54.1364C36.7936 53.9631 36.7335 53.7934 36.6178 53.6642C36.5021 53.535 36.3401 53.4566 36.1669 53.4462Z" fill="#FAB348"/>
<path d="M50.5002 13.6173C45.8755 10.9472 40.5629 9.70853 35.2343 10.0578C29.9056 10.4071 24.8001 12.3286 20.5635 15.5795C16.3269 18.8303 13.1495 23.2645 11.4329 28.3212C9.71642 33.3779 9.53793 38.8301 10.92 43.9882C12.7734 50.9052 17.2987 56.8026 23.5002 60.3831C29.7018 63.9635 37.0717 64.9338 43.9887 63.0804C50.9056 61.227 56.803 56.7018 60.3835 50.5002C63.964 44.2987 64.9342 36.9287 63.0808 30.0118C62.172 26.583 60.5922 23.3685 58.4327 20.5544C56.2732 17.7403 53.5771 15.3824 50.5002 13.6173ZM43.6474 61.808C37.0679 63.571 30.0576 62.6481 24.1586 59.2423C18.2596 55.8365 13.9552 50.2268 12.1922 43.6474C10.4292 37.0679 11.3522 30.0576 14.758 24.1586C18.1637 18.2596 23.7734 13.9551 30.3529 12.1922C36.9323 10.4292 43.9427 11.3521 49.8417 14.7579C55.7407 18.1637 60.0451 23.7734 61.8081 30.3528C63.571 36.9323 62.6481 43.9426 59.2423 49.8416C55.8365 55.7406 50.2269 60.0451 43.6474 61.808Z" fill="#FAB348"/>
<path d="M43.529 17.7533C43.3778 17.666 43.198 17.6423 43.0293 17.6875C42.8606 17.7327 42.7168 17.8431 42.6295 17.9944L37.8477 26.2765C37.2522 27.308 36.2713 28.0607 35.1208 28.369C33.9703 28.6773 32.7444 28.5159 31.7129 27.9204C30.6814 27.3248 29.9287 26.3439 29.6204 25.1934C29.3121 24.0429 29.4735 22.817 30.0691 21.7855L34.8508 13.5033C34.9381 13.3521 34.9618 13.1723 34.9166 13.0036C34.8714 12.8349 34.761 12.6911 34.6097 12.6037C34.4585 12.5164 34.2787 12.4928 34.11 12.538C33.9413 12.5832 33.7975 12.6935 33.7102 12.8448L28.9284 21.127C28.2219 22.3547 27.9877 23.798 28.2698 25.1862C28.5519 26.5743 29.331 27.8117 30.4608 28.6662L27.0816 34.5191L26.5113 34.1898C26.36 34.1025 26.1803 34.0789 26.0116 34.1241C25.8429 34.1693 25.699 34.2796 25.6117 34.4309L18.3425 47.0216C18.0878 47.4638 18.0189 47.9891 18.151 48.482C18.283 48.975 18.6053 49.3955 19.047 49.6512L19.1347 49.7018C19.577 49.9565 20.1022 50.0253 20.5952 49.8932C21.0882 49.7611 21.5087 49.4389 21.7643 48.9972L29.0336 36.4065C29.1209 36.2553 29.1446 36.0755 29.0994 35.9068C29.0542 35.7381 28.9438 35.5943 28.7925 35.5069L28.2222 35.1777L31.5947 29.3364C32.9062 29.9188 34.3868 29.9957 35.7516 29.5524C37.1165 29.1092 38.2693 28.1769 38.9884 26.9351L43.7701 18.6529C43.8574 18.5016 43.8811 18.3219 43.8359 18.1532C43.7907 17.9845 43.6803 17.8406 43.529 17.7533ZM20.6237 48.3387C20.543 48.4782 20.4102 48.5799 20.2545 48.6217C20.0988 48.6634 19.9329 48.6416 19.7932 48.5612L19.7055 48.5105C19.566 48.4298 19.4643 48.297 19.4226 48.1413C19.3809 47.9856 19.4026 47.8198 19.4831 47.6801L26.4231 35.6597L27.5637 36.3183L20.6237 48.3387Z" fill="#0A267D"/>
<path d="M32.5718 23.9243L37.6539 15.1217C37.7413 14.9705 37.7649 14.7907 37.7197 14.622C37.6745 14.4533 37.5642 14.3095 37.4129 14.2222C37.2616 14.1348 37.0819 14.1112 36.9132 14.1564C36.7445 14.2016 36.6006 14.3119 36.5133 14.4632L31.4311 23.2658C31.3438 23.417 31.3202 23.5968 31.3654 23.7655C31.4106 23.9342 31.5209 24.078 31.6722 24.1654C31.8234 24.2527 32.0032 24.2764 32.1719 24.2311C32.3406 24.1859 32.4844 24.0756 32.5718 23.9243Z" fill="#0A267D"/>
<path d="M35.8848 25.8371L40.9669 17.0345C41.0102 16.9596 41.0382 16.8769 41.0495 16.7912C41.0608 16.7054 41.0551 16.6183 41.0327 16.5348C41.0103 16.4512 40.9717 16.3729 40.9191 16.3043C40.8664 16.2357 40.8008 16.1781 40.7259 16.1349C40.651 16.0917 40.5683 16.0636 40.4826 16.0523C40.3968 16.041 40.3097 16.0467 40.2262 16.0691C40.1426 16.0915 40.0643 16.1301 39.9957 16.1828C39.9271 16.2354 39.8695 16.3011 39.8263 16.3759L34.7441 25.1785C34.6568 25.3298 34.6331 25.5095 34.6783 25.6782C34.7236 25.8469 34.8339 25.9908 34.9852 26.0781C35.1364 26.1654 35.3162 26.1891 35.4849 26.1439C35.6536 26.0987 35.7974 25.9883 35.8848 25.8371Z" fill="#0A267D"/>
<path d="M54.8469 24.3261C53.4839 23.5391 51.568 23.8552 49.4523 25.2164C47.6334 26.3864 45.9141 28.182 44.853 30.0199C43.004 33.2225 43.5137 35.9835 46.2734 37.8588L42.9215 43.6645L42.3511 43.3352C42.1999 43.2479 42.0201 43.2242 41.8514 43.2694C41.6827 43.3147 41.5389 43.425 41.4516 43.5763L34.1824 56.1668C33.9277 56.609 33.8589 57.1343 33.9909 57.6272C34.123 58.1202 34.4453 58.5407 34.8869 58.7964L34.9748 58.8471C35.417 59.1017 35.9423 59.1706 36.4353 59.0385C36.9282 58.9064 37.3487 58.5841 37.6043 58.1424L44.8735 45.5517C44.9609 45.4005 44.9845 45.2207 44.9393 45.052C44.8941 44.8833 44.7838 44.7395 44.6325 44.6521L44.0622 44.3229L47.4141 38.5172C50.4182 39.9691 53.064 39.0304 54.913 35.8278C55.9741 33.9899 56.6695 31.6031 56.7733 29.4429C56.8942 26.9303 56.21 25.113 54.8469 24.3261ZM36.4637 57.4839C36.383 57.6234 36.2502 57.7252 36.0945 57.7669C35.9389 57.8086 35.773 57.7869 35.6333 57.7064L35.5455 57.6557C35.406 57.575 35.3042 57.4422 35.2625 57.2865C35.2208 57.1308 35.2426 56.965 35.3231 56.8253L42.263 44.8049L43.4037 45.4635L36.4637 57.4839ZM47.4904 37.068C44.9096 35.578 44.406 33.4282 45.9937 30.6782C47.0358 28.9291 48.4622 27.44 50.1649 26.3238C51.8207 25.2588 53.2868 24.9468 54.1881 25.4672C55.0894 25.9875 55.552 27.4137 55.4575 29.3801C55.3423 31.4127 54.766 33.3924 53.7724 35.1692C52.1847 37.9192 50.0711 38.558 47.4904 37.068Z" fill="#0A267D"/>
</svg>
