<svg width="40" height="40" viewBox="0 0 40 40" fill="none" xmlns="http://www.w3.org/2000/svg">
<path d="M11.7531 23.0547C11.7533 20.4106 12.7065 17.8552 14.438 15.857C16.1696 13.8587 18.5633 12.5516 21.1805 12.1752C19.6214 11.9518 18.0326 12.0661 16.5216 12.5104C15.0105 12.9547 13.6127 13.7185 12.4226 14.7502C11.2326 15.7819 10.2782 17.0573 9.62413 18.49C8.97004 19.9227 8.63153 21.4793 8.63153 23.0543C8.63153 24.6293 8.97004 26.1858 9.62413 27.6186C10.2782 29.0513 11.2326 30.3267 12.4226 31.3584C13.6127 32.3901 15.0105 33.1539 16.5216 33.5982C18.0326 34.0425 19.6214 34.1568 21.1805 33.9334C18.5634 33.5572 16.1697 32.2502 14.4381 30.2521C12.7066 28.254 11.7533 25.6987 11.7531 23.0547Z" fill="#FCEED9"/>
<path d="M5.38359 10.7031C5.25927 10.7031 5.14005 10.7525 5.05214 10.8404C4.96423 10.9283 4.91484 11.0476 4.91484 11.1719V15.2625C4.91431 15.6496 4.78698 16.0258 4.55235 16.3336C4.31771 16.6414 3.98869 16.8639 3.61562 16.967V11.1719C3.61562 11.0476 3.56624 10.9283 3.47833 10.8404C3.39042 10.7525 3.27119 10.7031 3.14687 10.7031C3.02255 10.7031 2.90333 10.7525 2.81542 10.8404C2.72751 10.9283 2.67812 11.0476 2.67812 11.1719V16.9661C2.30487 16.8636 1.97558 16.6414 1.74086 16.3337C1.50614 16.0259 1.37898 15.6496 1.37891 15.2625V11.1719C1.37891 11.0476 1.32952 10.9283 1.24161 10.8404C1.1537 10.7525 1.03448 10.7031 0.910156 10.7031C0.785836 10.7031 0.666608 10.7525 0.5787 10.8404C0.490792 10.9283 0.441406 11.0476 0.441406 11.1719V15.2625C0.441737 15.8986 0.666102 16.5143 1.07512 17.0014C1.48414 17.4886 2.05168 17.8161 2.67812 17.9266V28.3172H1.39062C1.2663 28.3172 1.14708 28.3666 1.05917 28.4545C0.971261 28.5424 0.921875 28.6616 0.921875 28.7859V35.8063C0.921875 36.3965 1.15634 36.9625 1.57368 37.3798C1.99102 37.7972 2.55706 38.0316 3.14727 38.0316C3.73748 38.0316 4.30351 37.7972 4.72085 37.3798C5.1382 36.9625 5.37266 36.3965 5.37266 35.8063V28.7859C5.37266 28.6616 5.32327 28.5424 5.23536 28.4545C5.14745 28.3666 5.02823 28.3172 4.90391 28.3172H3.61562V17.9266C4.24183 17.8156 4.80906 17.488 5.21799 17.0009C5.62692 16.5138 5.85148 15.8985 5.85234 15.2625V11.1719C5.85234 11.0476 5.80296 10.9283 5.71505 10.8404C5.62714 10.7525 5.50791 10.7031 5.38359 10.7031ZM4.43516 30.5125H3.35938C3.23505 30.5125 3.11583 30.5619 3.02792 30.6498C2.94001 30.7377 2.89062 30.8569 2.89062 30.9813C2.89062 31.1056 2.94001 31.2248 3.02792 31.3127C3.11583 31.4006 3.23505 31.45 3.35938 31.45H4.43516V35.8063C4.43516 36.1478 4.29947 36.4754 4.05794 36.7169C3.81642 36.9585 3.48884 37.0941 3.14727 37.0941C2.8057 37.0941 2.47812 36.9585 2.23659 36.7169C1.99506 36.4754 1.85938 36.1478 1.85938 35.8063V31.45H2.14844C2.27276 31.45 2.39199 31.4006 2.47989 31.3127C2.5678 31.2248 2.61719 31.1056 2.61719 30.9813C2.61719 30.8569 2.5678 30.7377 2.47989 30.6498C2.39199 30.5619 2.27276 30.5125 2.14844 30.5125H1.85938V29.2547H4.43516V30.5125Z" fill="#FAB348"/>
<path d="M36.3838 1.99539L34.447 1.96883C34.3849 1.96798 34.3233 1.97948 34.2657 2.00265C34.2081 2.02583 34.1556 2.06022 34.1114 2.10384C34.0672 2.14745 34.0321 2.19941 34.0082 2.2567C33.9842 2.314 33.9719 2.37548 33.9719 2.43758V19.9305C33.9719 20.0548 34.0213 20.174 34.1092 20.2619C34.1971 20.3498 34.3163 20.3992 34.4406 20.3992H35.8242V28.0508C35.8242 28.546 36.0209 29.0209 36.3711 29.3711C36.7213 29.7212 37.1962 29.918 37.6914 29.918C38.1866 29.918 38.6615 29.7212 39.0117 29.3711C39.3619 29.0209 39.5586 28.546 39.5586 28.0508V5.23672C39.5538 4.38997 39.2199 3.57828 38.6273 2.97336C38.0348 2.36843 37.2302 2.01771 36.3838 1.99539ZM38.6211 19.4617H38.0859C37.9616 19.4617 37.8424 19.5111 37.7545 19.599C37.6666 19.6869 37.6172 19.8061 37.6172 19.9305C37.6172 20.0548 37.6666 20.174 37.7545 20.2619C37.8424 20.3498 37.9616 20.3992 38.0859 20.3992H38.6211V28.0508C38.6211 28.2973 38.5232 28.5338 38.3488 28.7082C38.1744 28.8825 37.938 28.9805 37.6914 28.9805C37.4448 28.9805 37.2084 28.8825 37.034 28.7082C36.8597 28.5338 36.7617 28.2973 36.7617 28.0508V20.372C36.8657 20.3349 36.9532 20.2623 37.0089 20.167C37.0646 20.0718 37.0849 19.9599 37.0662 19.8512C37.0475 19.7424 36.9911 19.6437 36.9068 19.5725C36.8225 19.5012 36.7158 19.462 36.6055 19.4617H34.9094V2.91273L36.3672 2.93273C36.9684 2.94917 37.5397 3.19874 37.9603 3.62868C38.3809 4.05863 38.6179 4.63526 38.6211 5.23672V19.4617Z" fill="#FAB348"/>
<path d="M35.9039 4.34687C35.7796 4.34687 35.6604 4.39626 35.5724 4.48416C35.4845 4.57207 35.4352 4.6913 35.4352 4.81562V5.35234C35.4352 5.47666 35.4845 5.59589 35.5724 5.6838C35.6604 5.7717 35.7796 5.82109 35.9039 5.82109C36.0282 5.82109 36.1474 5.7717 36.2354 5.6838C36.3233 5.59589 36.3727 5.47666 36.3727 5.35234V4.81562C36.3727 4.6913 36.3233 4.57207 36.2354 4.48416C36.1474 4.39626 36.0282 4.34687 35.9039 4.34687Z" fill="#FAB348"/>
<path d="M35.9039 6.32266C35.7796 6.32266 35.6604 6.37205 35.5724 6.45996C35.4845 6.54786 35.4352 6.66709 35.4352 6.79141V11.5336C35.4352 11.6579 35.4845 11.7771 35.5724 11.8651C35.6604 11.953 35.7796 12.0023 35.9039 12.0023C36.0282 12.0023 36.1474 11.953 36.2354 11.8651C36.3233 11.7771 36.3727 11.6579 36.3727 11.5336V6.79141C36.3727 6.66709 36.3233 6.54786 36.2354 6.45996C36.1474 6.37205 36.0282 6.32266 35.9039 6.32266Z" fill="#FAB348"/>
<path d="M19.618 8.54531C11.618 8.54531 5.10938 15.0542 5.10938 23.0547C5.10938 31.0552 11.6179 37.5633 19.618 37.5633C27.618 37.5633 34.1273 31.0547 34.1273 23.0547C34.1273 15.0547 27.6184 8.54531 19.618 8.54531ZM19.618 36.6258C12.1348 36.6258 6.04688 30.5378 6.04688 23.0547C6.04688 15.5716 12.1348 9.48281 19.618 9.48281C27.1011 9.48281 33.1898 15.5712 33.1898 23.0547C33.1898 30.5382 27.1016 36.6258 19.618 36.6258Z" fill="#0A267D"/>
<path d="M27.535 14.7705C27.4905 14.7279 27.438 14.6946 27.3807 14.6723C27.3233 14.65 27.2621 14.6393 27.2005 14.6406C27.139 14.642 27.0783 14.6555 27.022 14.6803C26.9656 14.7052 26.9148 14.7409 26.8722 14.7854C26.8297 14.8299 26.7963 14.8823 26.774 14.9397C26.7518 14.9971 26.741 15.0583 26.7424 15.1198C26.7438 15.1814 26.7573 15.242 26.7821 15.2984C26.8069 15.3547 26.8426 15.4056 26.8871 15.4481C27.9192 16.4273 28.74 17.6072 29.2993 18.9153C29.8585 20.2234 30.1443 21.6321 30.139 23.0547C30.139 28.856 25.4193 33.5758 19.618 33.5758C13.8166 33.5758 9.09686 28.856 9.09686 23.0547C9.09686 17.2534 13.8166 12.5328 19.618 12.5328C21.5172 12.5315 23.3812 13.0451 25.0118 14.0188C25.0646 14.0504 25.1232 14.0713 25.1841 14.0803C25.245 14.0893 25.3071 14.0862 25.3668 14.0712C25.4265 14.0561 25.4826 14.0295 25.5321 13.9928C25.5815 13.9561 25.6232 13.91 25.6548 13.8572C25.6864 13.8043 25.7073 13.7458 25.7163 13.6849C25.7252 13.624 25.7221 13.5619 25.7071 13.5022C25.6921 13.4425 25.6655 13.3863 25.6288 13.3369C25.592 13.2875 25.5459 13.2457 25.4931 13.2141C23.7171 12.1533 21.6868 11.5937 19.6181 11.595C13.2998 11.595 8.15952 16.7356 8.15952 23.0544C8.15952 29.3731 13.3001 34.513 19.6181 34.513C25.9361 34.513 31.0767 29.3723 31.0767 23.0544C31.0824 21.5051 30.7711 19.971 30.162 18.5464C29.553 17.1218 28.659 15.8368 27.535 14.7705Z" fill="#0A267D"/>
<path d="M13.3929 17.7555C13.4574 17.7555 13.5213 17.7422 13.5805 17.7163C13.6397 17.6905 13.6928 17.6526 13.7366 17.6052C13.87 17.4611 14.0053 17.3251 14.1387 17.2008C14.1844 17.159 14.2214 17.1086 14.2476 17.0524C14.2737 16.9963 14.2885 16.9355 14.291 16.8736C14.2935 16.8117 14.2837 16.7499 14.2622 16.6918C14.2407 16.6337 14.2079 16.5805 14.1657 16.5351C14.1234 16.4898 14.0726 16.4533 14.0162 16.4277C13.9598 16.4021 13.8989 16.388 13.8369 16.3861C13.775 16.3842 13.7133 16.3946 13.6555 16.4167C13.5976 16.4388 13.5447 16.4721 13.4998 16.5148C13.3494 16.6548 13.1977 16.8073 13.0487 16.9679C12.9867 17.0348 12.9457 17.1183 12.9305 17.2082C12.9153 17.298 12.9266 17.3904 12.9631 17.4739C12.9995 17.5575 13.0596 17.6285 13.1358 17.6785C13.2121 17.7284 13.3013 17.755 13.3924 17.7551L13.3929 17.7555Z" fill="#0A267D"/>
<path d="M12.8158 17.957C12.7646 17.9229 12.7071 17.8991 12.6468 17.8871C12.5864 17.8751 12.5242 17.8751 12.4639 17.8871C12.4035 17.8992 12.3461 17.923 12.2949 17.9572C12.2437 17.9914 12.1998 18.0354 12.1656 18.0866C11.183 19.5569 10.6598 21.2862 10.6625 23.0547C10.6625 23.179 10.7119 23.2983 10.7998 23.3862C10.8877 23.4741 11.0069 23.5235 11.1312 23.5235C11.2556 23.5235 11.3748 23.4741 11.4627 23.3862C11.5506 23.2983 11.6 23.179 11.6 23.0547C11.5975 21.4716 12.0658 19.9235 12.9453 18.6071C13.0143 18.5037 13.0394 18.3772 13.0152 18.2553C12.9909 18.1333 12.9191 18.0261 12.8158 17.957Z" fill="#0A267D"/>
</svg>
