<svg width="74" height="74" viewBox="0 0 74 74" fill="none" xmlns="http://www.w3.org/2000/svg">
<path d="M54.0493 35.2776C53.963 35.283 53.8785 35.3054 53.8009 35.3434C53.7232 35.3815 53.6538 35.4345 53.5965 35.4993C53.5393 35.5642 53.4955 35.6397 53.4675 35.7216C53.4394 35.8034 53.4278 35.8899 53.4333 35.9763C53.6913 40.1366 52.3621 44.24 49.7139 47.459C47.0656 50.6779 43.2953 52.7729 39.1632 53.3215C39.0768 53.3321 38.9933 53.3598 38.9177 53.4028C38.842 53.4459 38.7756 53.5035 38.7224 53.5724C38.6691 53.6413 38.6301 53.72 38.6075 53.8041C38.5848 53.8881 38.5791 53.9759 38.5906 54.0622C38.6021 54.1485 38.6306 54.2316 38.6745 54.3068C38.7183 54.382 38.7766 54.4478 38.8461 54.5003C38.9155 54.5528 38.9946 54.5911 39.0789 54.6128C39.1632 54.6346 39.251 54.6394 39.3372 54.627C43.7999 54.0345 47.872 51.7718 50.732 48.2952C53.5921 44.8185 55.0274 40.3867 54.7484 35.8934C54.743 35.8071 54.7206 35.7226 54.6825 35.6449C54.6444 35.5673 54.5914 35.4978 54.5265 35.4406C54.4615 35.3834 54.386 35.3396 54.3041 35.3116C54.2222 35.2837 54.1356 35.2721 54.0493 35.2776Z" fill="#FAB348"/>
<path d="M41.7038 21.2187C44.6783 22.1111 47.3423 23.8211 49.3922 26.1539C49.4492 26.219 49.5184 26.2722 49.5959 26.3105C49.6734 26.3489 49.7578 26.3715 49.8441 26.3773C49.9303 26.383 50.0169 26.3717 50.0988 26.3439C50.1807 26.3162 50.2564 26.2726 50.3215 26.2156C50.3865 26.1587 50.4398 26.0895 50.4781 26.0119C50.5164 25.9344 50.5391 25.8501 50.5448 25.7638C50.5505 25.6775 50.5392 25.5909 50.5115 25.509C50.4837 25.4271 50.4401 25.3514 50.3832 25.2864C48.1699 22.767 45.2932 20.9203 42.0812 19.9569C41.9138 19.9068 41.7335 19.9253 41.5798 20.0082C41.426 20.0912 41.3116 20.2318 41.2615 20.3991C41.2115 20.5665 41.23 20.7468 41.3129 20.9005C41.3959 21.0542 41.5365 21.1687 41.7038 21.2187Z" fill="#FAB348"/>
<path d="M21.7591 43.2277C20.1868 39.3775 20.1293 35.0751 21.5983 31.1844C23.0672 27.2937 25.9537 24.1027 29.6782 22.2524C29.8347 22.1749 29.954 22.0383 30.0099 21.8729C30.0657 21.7074 30.0536 21.5265 29.9761 21.37C29.8985 21.2135 29.762 21.0941 29.5965 21.0383C29.4311 20.9824 29.2502 20.9946 29.0936 21.0721C25.071 23.0701 21.9532 26.5162 20.3664 30.7181C18.7797 34.9201 18.8415 39.5668 20.5394 43.725C20.6054 43.8868 20.7329 44.0157 20.8939 44.0834C21.0549 44.1511 21.2362 44.1521 21.398 44.0861C21.5597 44.0202 21.6886 43.8926 21.7563 43.7316C21.824 43.5706 21.825 43.3893 21.759 43.2276L21.7591 43.2277Z" fill="#FAB348"/>
<path d="M36.1669 53.4462C33.5528 53.3113 31.0083 52.5563 28.7437 51.2436C26.4791 49.9308 24.5593 48.098 23.1432 45.8966C23.0969 45.8229 23.0366 45.7591 22.9655 45.7088C22.8945 45.6585 22.8142 45.6229 22.7292 45.6038C22.6443 45.5848 22.5565 45.5828 22.4708 45.5979C22.3851 45.6131 22.3032 45.645 22.2299 45.692C22.1567 45.7389 22.0934 45.7999 22.0439 45.8715C21.9943 45.943 21.9594 46.0236 21.9412 46.1087C21.923 46.1938 21.9219 46.2817 21.9379 46.3673C21.9538 46.4528 21.9866 46.5343 22.0342 46.6071C23.5697 48.9936 25.6526 50.9791 28.1099 52.3986C30.5459 53.815 33.2866 54.6254 36.1012 54.7616C36.2746 54.7684 36.4436 54.7066 36.5716 54.5895C36.6996 54.4725 36.7763 54.3096 36.7849 54.1364C36.7936 53.9631 36.7335 53.7934 36.6178 53.6642C36.5021 53.535 36.3401 53.4566 36.1669 53.4462Z" fill="#FAB348"/>
<path d="M50.5002 13.6173C45.8755 10.9472 40.5629 9.70853 35.2343 10.0578C29.9056 10.4071 24.8001 12.3286 20.5635 15.5795C16.3269 18.8303 13.1495 23.2645 11.4329 28.3212C9.71642 33.3779 9.53793 38.8301 10.92 43.9882C12.7734 50.9052 17.2987 56.8026 23.5002 60.3831C29.7018 63.9635 37.0717 64.9338 43.9887 63.0804C50.9056 61.227 56.803 56.7018 60.3835 50.5002C63.964 44.2987 64.9342 36.9287 63.0808 30.0118C62.172 26.583 60.5922 23.3685 58.4327 20.5544C56.2732 17.7403 53.5771 15.3824 50.5002 13.6173ZM43.6474 61.808C37.0679 63.571 30.0576 62.6481 24.1586 59.2423C18.2596 55.8365 13.9552 50.2268 12.1922 43.6474C10.4292 37.0679 11.3522 30.0576 14.758 24.1586C18.1637 18.2596 23.7734 13.9551 30.3529 12.1922C36.9323 10.4292 43.9427 11.3521 49.8417 14.7579C55.7407 18.1637 60.0451 23.7734 61.8081 30.3528C63.571 36.9323 62.6481 43.9426 59.2423 49.8416C55.8365 55.7406 50.2269 60.0451 43.6474 61.808Z" fill="#FAB348"/>
<path d="M43.529 17.7533C43.3778 17.666 43.198 17.6423 43.0293 17.6875C42.8606 17.7327 42.7168 17.8431 42.6295 17.9944L37.8477 26.2765C37.2522 27.308 36.2713 28.0607 35.1208 28.369C33.9703 28.6773 32.7444 28.5159 31.7129 27.9204C30.6814 27.3248 29.9287 26.3439 29.6204 25.1934C29.3121 24.0429 29.4735 22.817 30.0691 21.7855L34.8508 13.5033C34.9381 13.3521 34.9618 13.1723 34.9166 13.0036C34.8714 12.8349 34.761 12.6911 34.6097 12.6037C34.4585 12.5164 34.2787 12.4928 34.11 12.538C33.9413 12.5832 33.7975 12.6935 33.7102 12.8448L28.9284 21.127C28.2219 22.3547 27.9877 23.798 28.2698 25.1862C28.5519 26.5743 29.331 27.8117 30.4608 28.6662L27.0816 34.5191L26.5113 34.1898C26.36 34.1025 26.1803 34.0789 26.0116 34.1241C25.8429 34.1693 25.699 34.2796 25.6117 34.4309L18.3425 47.0216C18.0878 47.4638 18.0189 47.9891 18.151 48.482C18.283 48.975 18.6053 49.3955 19.047 49.6512L19.1347 49.7018C19.577 49.9565 20.1022 50.0253 20.5952 49.8932C21.0882 49.7611 21.5087 49.4389 21.7643 48.9972L29.0336 36.4065C29.1209 36.2553 29.1446 36.0755 29.0994 35.9068C29.0542 35.7381 28.9438 35.5943 28.7925 35.5069L28.2222 35.1777L31.5947 29.3364C32.9062 29.9188 34.3868 29.9957 35.7516 29.5524C37.1165 29.1092 38.2693 28.1769 38.9884 26.9351L43.7701 18.6529C43.8574 18.5016 43.8811 18.3219 43.8359 18.1532C43.7907 17.9845 43.6803 17.8406 43.529 17.7533ZM20.6237 48.3387C20.543 48.4782 20.4102 48.5799 20.2545 48.6217C20.0988 48.6634 19.9329 48.6416 19.7932 48.5612L19.7055 48.5105C19.566 48.4298 19.4643 48.297 19.4226 48.1413C19.3809 47.9856 19.4026 47.8198 19.4831 47.6801L26.4231 35.6597L27.5637 36.3183L20.6237 48.3387Z" fill="#0A267D"/>
<path d="M32.5718 23.9243L37.6539 15.1217C37.7413 14.9705 37.7649 14.7907 37.7197 14.622C37.6745 14.4533 37.5642 14.3095 37.4129 14.2222C37.2616 14.1348 37.0819 14.1112 36.9132 14.1564C36.7445 14.2016 36.6006 14.3119 36.5133 14.4632L31.4311 23.2658C31.3438 23.417 31.3202 23.5968 31.3654 23.7655C31.4106 23.9342 31.5209 24.078 31.6722 24.1654C31.8234 24.2527 32.0032 24.2764 32.1719 24.2311C32.3406 24.1859 32.4844 24.0756 32.5718 23.9243Z" fill="#0A267D"/>
<path d="M35.8848 25.8371L40.9669 17.0345C41.0102 16.9596 41.0382 16.8769 41.0495 16.7912C41.0608 16.7054 41.0551 16.6183 41.0327 16.5348C41.0103 16.4512 40.9717 16.3729 40.9191 16.3043C40.8664 16.2357 40.8008 16.1781 40.7259 16.1349C40.651 16.0917 40.5683 16.0636 40.4826 16.0523C40.3968 16.041 40.3097 16.0467 40.2262 16.0691C40.1426 16.0915 40.0643 16.1301 39.9957 16.1828C39.9271 16.2354 39.8695 16.3011 39.8263 16.3759L34.7441 25.1785C34.6568 25.3298 34.6331 25.5095 34.6783 25.6782C34.7236 25.8469 34.8339 25.9908 34.9852 26.0781C35.1364 26.1654 35.3162 26.1891 35.4849 26.1439C35.6536 26.0987 35.7974 25.9883 35.8848 25.8371Z" fill="#0A267D"/>
<path d="M54.8469 24.3261C53.4839 23.5391 51.568 23.8552 49.4523 25.2164C47.6334 26.3864 45.9141 28.182 44.853 30.0199C43.004 33.2225 43.5137 35.9835 46.2734 37.8588L42.9215 43.6645L42.3511 43.3352C42.1999 43.2479 42.0201 43.2242 41.8514 43.2694C41.6827 43.3147 41.5389 43.425 41.4516 43.5763L34.1824 56.1668C33.9277 56.609 33.8589 57.1343 33.9909 57.6272C34.123 58.1202 34.4453 58.5407 34.8869 58.7964L34.9748 58.8471C35.417 59.1017 35.9423 59.1706 36.4353 59.0385C36.9282 58.9064 37.3487 58.5841 37.6043 58.1424L44.8735 45.5517C44.9609 45.4005 44.9845 45.2207 44.9393 45.052C44.8941 44.8833 44.7838 44.7395 44.6325 44.6521L44.0622 44.3229L47.4141 38.5172C50.4182 39.9691 53.064 39.0304 54.913 35.8278C55.9741 33.9899 56.6695 31.6031 56.7733 29.4429C56.8942 26.9303 56.21 25.113 54.8469 24.3261ZM36.4637 57.4839C36.383 57.6234 36.2502 57.7252 36.0945 57.7669C35.9389 57.8086 35.773 57.7869 35.6333 57.7064L35.5455 57.6557C35.406 57.575 35.3042 57.4422 35.2625 57.2865C35.2208 57.1308 35.2426 56.965 35.3231 56.8253L42.263 44.8049L43.4037 45.4635L36.4637 57.4839ZM47.4904 37.068C44.9096 35.578 44.406 33.4282 45.9937 30.6782C47.0358 28.9291 48.4622 27.44 50.1649 26.3238C51.8207 25.2588 53.2868 24.9468 54.1881 25.4672C55.0894 25.9875 55.552 27.4137 55.4575 29.3801C55.3423 31.4127 54.766 33.3924 53.7724 35.1692C52.1847 37.9192 50.0711 38.558 47.4904 37.068Z" fill="#0A267D"/>
</svg>
