<svg width="312" height="74" viewBox="0 0 312 74" fill="none" xmlns="http://www.w3.org/2000/svg">
<g clip-path="url(#clip0)">
<path d="M56.5885 35.2776C56.4982 35.283 56.4097 35.3054 56.3285 35.3434C56.2471 35.3815 56.1745 35.4345 56.1145 35.4993C56.0546 35.5642 56.0087 35.6397 55.9794 35.7216C55.95 35.8034 55.9378 35.8899 55.9436 35.9763C56.2137 40.1366 54.8221 44.24 52.0495 47.459C49.2767 50.6779 45.3293 52.7729 41.0031 53.3215C40.9126 53.3321 40.8252 53.3598 40.7461 53.4028C40.6668 53.4459 40.5973 53.5035 40.5416 53.5724C40.4858 53.6413 40.4449 53.72 40.4213 53.8041C40.3975 53.8881 40.3915 53.9759 40.4036 54.0622C40.4156 54.1485 40.4455 54.2316 40.4914 54.3068C40.5373 54.382 40.5983 54.4478 40.6711 54.5003C40.7437 54.5528 40.8266 54.5911 40.9148 54.6128C41.0031 54.6346 41.095 54.6394 41.1853 54.627C45.8576 54.0345 50.121 51.7718 53.1154 48.2952C56.1098 44.8185 57.6126 40.3867 57.3205 35.8934C57.3148 35.8071 57.2914 35.7226 57.2515 35.6449C57.2116 35.5673 57.1561 35.4978 57.0881 35.4406C57.0201 35.3834 56.941 35.3396 56.8553 35.3116C56.7696 35.2837 56.6789 35.2721 56.5885 35.2776Z" fill="#FAB348"/>
<path d="M43.663 21.2187C46.7773 22.1111 49.5664 23.8211 51.7126 26.1539C51.7723 26.219 51.8448 26.2722 51.9259 26.3105C52.0071 26.3489 52.0954 26.3715 52.1858 26.3773C52.276 26.383 52.3667 26.3717 52.4524 26.3439C52.5382 26.3162 52.6174 26.2726 52.6856 26.2156C52.7536 26.1587 52.8095 26.0895 52.8496 26.0119C52.8897 25.9344 52.9134 25.8501 52.9194 25.7638C52.9254 25.6775 52.9135 25.5909 52.8845 25.509C52.8554 25.4271 52.8098 25.3514 52.7502 25.2864C50.4329 22.767 47.4211 20.9203 44.0582 19.9569C43.8829 19.9068 43.6941 19.9253 43.5332 20.0082C43.3722 20.0912 43.2524 20.2318 43.2 20.3991C43.1476 20.5665 43.167 20.7468 43.2538 20.9005C43.3407 21.0542 43.4879 21.1687 43.663 21.2187Z" fill="#FAB348"/>
<path d="M22.7813 43.2277C21.1352 39.3775 21.075 35.0751 22.613 31.1844C24.1509 27.2937 27.173 24.1027 31.0725 22.2524C31.2363 22.1749 31.3612 22.0383 31.4198 21.8729C31.4782 21.7074 31.4655 21.5265 31.3844 21.37C31.3031 21.2135 31.1602 21.0941 30.9869 21.0383C30.8138 20.9824 30.6244 20.9946 30.4604 21.0721C26.2488 23.0701 22.9846 26.5162 21.3232 30.7181C19.662 34.9201 19.7267 39.5668 21.5043 43.725C21.5734 43.8868 21.7069 44.0157 21.8755 44.0834C22.044 44.1511 22.2339 44.1521 22.4033 44.0861C22.5726 44.0202 22.7075 43.8926 22.7784 43.7316C22.8493 43.5706 22.8503 43.3893 22.7812 43.2276L22.7813 43.2277Z" fill="#FAB348"/>
<path d="M37.866 53.4462C35.1291 53.3113 32.4651 52.5563 30.0941 51.2436C27.7231 49.9308 25.7131 48.098 24.2305 45.8966C24.182 45.8229 24.1189 45.7591 24.0444 45.7088C23.9701 45.6585 23.886 45.6229 23.797 45.6038C23.7081 45.5848 23.6162 45.5828 23.5265 45.5979C23.4368 45.6131 23.351 45.645 23.2743 45.692C23.1976 45.7389 23.1313 45.7999 23.0795 45.8715C23.0276 45.943 22.9911 46.0236 22.972 46.1087C22.9529 46.1938 22.9518 46.2817 22.9685 46.3673C22.9852 46.4528 23.0195 46.5343 23.0694 46.6071C24.677 48.9936 26.8578 50.9791 29.4305 52.3986C31.9809 53.815 34.8504 54.6254 37.7972 54.7616C37.9788 54.7684 38.1557 54.7066 38.2897 54.5895C38.4237 54.4725 38.5041 54.3096 38.5131 54.1364C38.5222 53.9631 38.4592 53.7934 38.3381 53.6642C38.217 53.535 38.0474 53.4566 37.866 53.4462Z" fill="#FAB348"/>
<path d="M52.8727 13.6173C48.0307 10.9472 42.4685 9.70853 36.8896 10.0578C31.3106 10.4071 25.9652 12.3286 21.5296 15.5795C17.0939 18.8303 13.7673 23.2645 11.97 28.3212C10.1729 33.3779 9.98602 38.8301 11.433 43.9882C13.3735 50.9052 18.1114 56.8026 24.6042 60.3831C31.0972 63.9635 38.8133 64.9338 46.0553 63.0804C53.2971 61.227 59.4716 56.7018 63.2203 50.5002C66.969 44.2987 67.9848 36.9287 66.0443 30.0118C65.0928 26.583 63.4388 23.3685 61.1779 20.5544C58.9169 17.7403 56.0941 15.3824 52.8727 13.6173ZM45.6979 61.808C38.8093 63.571 31.4697 62.6481 25.2936 59.2423C19.1174 55.8365 14.6108 50.2268 12.765 43.6474C10.9192 37.0679 11.8855 30.0576 15.4513 24.1586C19.017 18.2596 24.8903 13.9551 31.7789 12.1922C38.6674 10.4292 46.0071 11.3521 52.1833 14.7579C58.3594 18.1637 62.866 23.7734 64.7118 30.3528C66.5576 36.9323 65.5913 43.9426 62.0255 49.8416C58.4597 55.7406 52.5866 60.0451 45.6979 61.808Z" fill="#FAB348"/>
<path d="M45.574 17.7533C45.4157 17.666 45.2274 17.6423 45.0508 17.6875C44.8742 17.7327 44.7236 17.8431 44.6322 17.9944L39.6258 26.2765C39.0023 27.308 37.9753 28.0607 36.7708 28.369C35.5662 28.6773 34.2827 28.5159 33.2028 27.9204C32.1228 27.3248 31.3347 26.3439 31.012 25.1934C30.6892 24.0429 30.8582 22.817 31.4817 21.7855L36.4881 13.5033C36.5795 13.3521 36.6043 13.1723 36.557 13.0036C36.5097 12.8349 36.3941 12.6911 36.2357 12.6037C36.0774 12.5164 35.8891 12.4928 35.7125 12.538C35.5359 12.5832 35.3853 12.6935 35.2939 12.8448L30.2875 21.127C29.5478 22.3547 29.3026 23.798 29.5979 25.1862C29.8933 26.5743 30.709 27.8117 31.8918 28.6662L28.3539 34.5191L27.7568 34.1898C27.5984 34.1025 27.4102 34.0789 27.2336 34.1241C27.057 34.1693 26.9063 34.2796 26.8149 34.4309L19.2042 47.0216C18.9376 47.4638 18.8654 47.9891 19.0037 48.482C19.1419 48.975 19.4794 49.3955 19.9418 49.6512L20.0336 49.7018C20.4967 49.9565 21.0466 50.0253 21.5628 49.8932C22.0789 49.7611 22.5192 49.4389 22.7868 48.9972L30.3976 36.4065C30.489 36.2553 30.5138 36.0755 30.4665 35.9068C30.4192 35.7381 30.3036 35.5943 30.1452 35.5069L29.5481 35.1777L33.079 29.3364C34.4521 29.9188 36.0023 29.9957 37.4312 29.5524C38.8602 29.1092 40.0672 28.1769 40.8201 26.9351L45.8264 18.6529C45.9178 18.5016 45.9426 18.3219 45.8953 18.1532C45.848 17.9845 45.7324 17.8406 45.574 17.7533ZM21.5926 48.3387C21.5081 48.4782 21.3691 48.5799 21.2061 48.6217C21.043 48.6634 20.8693 48.6416 20.7231 48.5612L20.6313 48.5105C20.4852 48.4298 20.3787 48.297 20.3351 48.1413C20.2914 47.9856 20.3141 47.8198 20.3984 47.6801L27.6645 35.6597L28.8586 36.3183L21.5926 48.3387Z" fill="#0A267D"/>
<path d="M34.102 23.9243L39.4229 15.1217C39.5144 14.9705 39.5391 14.7907 39.4918 14.622C39.4444 14.4533 39.329 14.3095 39.1705 14.2222C39.0121 14.1348 38.824 14.1112 38.6474 14.1564C38.4707 14.2016 38.3201 14.3119 38.2287 14.4632L32.9077 23.2658C32.8163 23.417 32.7916 23.5968 32.8389 23.7655C32.8863 23.9342 33.0017 24.078 33.1602 24.1654C33.3185 24.2527 33.5067 24.2764 33.6833 24.2311C33.86 24.1859 34.0105 24.0756 34.102 23.9243Z" fill="#0A267D"/>
<path d="M37.5707 25.8371L42.8915 17.0345C42.9369 16.9596 42.9662 16.8769 42.978 16.7912C42.9898 16.7054 42.9839 16.6183 42.9604 16.5348C42.937 16.4512 42.8965 16.3729 42.8415 16.3043C42.7863 16.2357 42.7176 16.1781 42.6392 16.1349C42.5608 16.0917 42.4742 16.0636 42.3845 16.0523C42.2946 16.041 42.2034 16.0467 42.116 16.0691C42.0285 16.0915 41.9465 16.1301 41.8747 16.1828C41.8029 16.2354 41.7426 16.3011 41.6973 16.3759L36.3764 25.1785C36.285 25.3298 36.2602 25.5095 36.3075 25.6782C36.3549 25.8469 36.4704 25.9908 36.6288 26.0781C36.7871 26.1654 36.9754 26.1891 37.152 26.1439C37.3286 26.0987 37.4792 25.9883 37.5707 25.8371Z" fill="#0A267D"/>
<path d="M57.4236 24.3261C55.9966 23.5391 53.9907 23.8552 51.7756 25.2164C49.8712 26.3864 48.0711 28.182 46.9602 30.0199C45.0243 33.2225 45.558 35.9835 48.4473 37.8588L44.9379 43.6645L44.3408 43.3352C44.1824 43.2479 43.9942 43.2242 43.8176 43.2694C43.6409 43.3147 43.4904 43.425 43.399 43.5763L35.7883 56.1668C35.5216 56.609 35.4496 57.1343 35.5878 57.6272C35.7261 58.1202 36.0635 58.5407 36.5259 58.7964L36.6179 58.8471C37.0809 59.1017 37.6309 59.1706 38.147 59.0385C38.6631 58.9064 39.1033 58.5841 39.3709 58.1424L46.9817 45.5517C47.0732 45.4005 47.0979 45.2207 47.0505 45.052C47.0032 44.8833 46.8877 44.7395 46.7293 44.6521L46.1322 44.3229L49.6416 38.5172C52.7868 39.9691 55.5569 39.0304 57.4928 35.8278C58.6038 33.9899 59.3318 31.6031 59.4405 29.4429C59.5671 26.9303 58.8507 25.113 57.4236 24.3261ZM38.1768 57.4839C38.0923 57.6234 37.9532 57.7252 37.7902 57.7669C37.6273 57.8086 37.4536 57.7869 37.3074 57.7064L37.2154 57.6557C37.0694 57.575 36.9628 57.4422 36.9191 57.2865C36.8755 57.1308 36.8983 56.965 36.9826 56.8253L44.2485 44.8049L45.4428 45.4635L38.1768 57.4839ZM49.7215 37.068C47.0194 35.578 46.4922 33.4282 48.1545 30.6782C49.2455 28.9291 50.739 27.44 52.5216 26.3238C54.2552 25.2588 55.7902 24.9468 56.7338 25.4672C57.6775 25.9875 58.1618 27.4137 58.0629 29.3801C57.9423 31.4127 57.3389 33.3924 56.2986 35.1692C54.6363 37.9192 52.4234 38.558 49.7215 37.068Z" fill="#0A267D"/>
<path d="M74.3946 45.616C74.3946 43.7813 74.864 42.224 75.8026 40.944C76.784 39.664 78.1066 38.6827 79.7706 38C79.984 37.9147 80.1333 37.9787 80.2186 38.192C80.304 38.4053 80.2826 38.5973 80.1546 38.768C79.3866 39.1947 78.768 39.856 78.2986 40.752C77.872 41.648 77.6586 42.736 77.6586 44.016C77.6586 46.6187 78.6186 48.6667 80.5386 50.16C82.4586 51.6533 84.9546 52.4 88.0266 52.4C92.0373 52.4 94.896 51.6107 96.6026 50.032C98.352 48.4533 99.2266 46.384 99.2266 43.824C99.2266 41.4347 98.736 39.344 97.7546 37.552C96.7733 35.7173 95.6853 34.0107 94.4906 32.432C93.3386 30.8107 92.272 29.1893 91.2906 27.568C90.3093 25.9467 89.8186 24.112 89.8186 22.064C89.8186 20.8693 90.0746 19.7173 90.5866 18.608C91.1413 17.4987 91.888 16.5173 92.8266 15.664C93.808 14.768 94.96 14.064 96.2826 13.552C97.6053 13.04 99.056 12.784 100.635 12.784C102.811 12.784 104.517 13.2533 105.755 14.192C107.035 15.088 107.675 16.176 107.675 17.456C107.675 18.1813 107.355 19.0773 106.715 20.144C106.117 21.168 105.499 22.064 104.859 22.832C104.688 22.9173 104.539 22.896 104.411 22.768C104.283 22.64 104.24 22.4907 104.283 22.32C104.496 21.9787 104.667 21.5733 104.795 21.104C104.965 20.592 105.051 20.0373 105.051 19.44C105.051 18.7573 104.901 18.1173 104.603 17.52C104.304 16.88 103.877 16.3467 103.323 15.92C102.768 15.4507 102.128 15.088 101.403 14.832C100.677 14.5333 99.9093 14.384 99.0986 14.384C96.9653 14.384 95.408 14.896 94.4266 15.92C93.4453 16.944 92.9546 18.2667 92.9546 19.888C92.9546 21.168 93.1893 22.384 93.6586 23.536C94.1706 24.6453 94.7893 25.776 95.5146 26.928C96.24 28.0373 97.008 29.168 97.8186 30.32C98.672 31.4293 99.4613 32.6027 100.187 33.84C100.912 35.0347 101.509 36.3147 101.979 37.68C102.491 39.0027 102.747 40.4533 102.747 42.032C102.747 43.696 102.32 45.2533 101.467 46.704C100.656 48.1547 99.5253 49.4347 98.0746 50.544C96.624 51.6107 94.9386 52.464 93.0186 53.104C91.0986 53.7013 89.0293 54 86.8106 54C82.7573 54 79.664 53.2107 77.5306 51.632C75.44 50.0533 74.3946 48.048 74.3946 45.616ZM114.183 34.864C114.055 34.992 113.906 34.992 113.735 34.864C113.607 34.736 113.5 34.5653 113.415 34.352C113.33 34.096 113.287 33.84 113.287 33.584C113.287 33.2853 113.351 33.0293 113.479 32.816C113.948 32.2187 114.631 31.472 115.527 30.576C116.466 29.6373 117.426 28.848 118.407 28.208C118.492 28.1653 118.599 28.208 118.727 28.336C118.855 28.4213 118.898 28.5067 118.855 28.592C117.959 29.4027 117.106 30.384 116.295 31.536C115.484 32.6453 114.78 33.7547 114.183 34.864ZM107.335 42.096C107.207 42.1813 107.1 42.16 107.015 42.032C106.93 41.8613 106.908 41.712 106.951 41.584C108.53 40.304 110.727 38.9813 113.543 37.616C113.884 37.616 114.055 37.808 114.055 38.192C113.5 39.1733 112.946 40.24 112.391 41.392C111.879 42.544 111.41 43.696 110.983 44.848C110.599 45.9573 110.279 47.0453 110.023 48.112C109.767 49.136 109.639 49.9893 109.639 50.672C109.639 51.5253 109.938 51.952 110.535 51.952C111.004 51.952 111.452 51.76 111.879 51.376C112.348 50.9493 112.882 50.416 113.479 49.776C113.564 49.6907 113.671 49.712 113.799 49.84C113.927 49.9253 113.948 50.0747 113.863 50.288C112.924 51.3973 111.986 52.2933 111.047 52.976C110.151 53.6587 109.276 54 108.423 54C106.93 54 106.183 53.296 106.183 51.888C106.183 51.12 106.29 50.224 106.503 49.2C106.759 48.1333 107.079 47.0667 107.463 46C107.89 44.8907 108.338 43.824 108.807 42.8C109.319 41.7333 109.831 40.816 110.343 40.048C109.874 40.304 109.34 40.624 108.743 41.008C108.188 41.392 107.719 41.7547 107.335 42.096ZM139.464 40.56C139.464 39.664 139.144 39.216 138.504 39.216C137.224 39.216 135.709 40.4107 133.96 42.8C132.211 45.1467 130.589 48.5173 129.096 52.912C129.011 53.168 128.648 53.424 128.008 53.68C127.411 53.8933 126.835 54 126.28 54C125.768 54 125.576 53.808 125.704 53.424C125.96 52.656 126.301 51.696 126.728 50.544C127.197 49.392 127.624 48.2187 128.008 47.024C128.435 45.7867 128.797 44.6347 129.096 43.568C129.395 42.4587 129.544 41.6053 129.544 41.008C129.544 39.856 129.181 39.28 128.456 39.28C127.347 39.28 125.939 40.432 124.232 42.736C122.568 44.9973 120.947 48.3893 119.368 52.912C119.283 53.168 118.941 53.424 118.344 53.68C117.747 53.8933 117.213 54 116.744 54C116.531 54 116.36 53.9573 116.232 53.872C116.104 53.7867 116.083 53.6373 116.168 53.424C116.509 52.4853 116.872 51.4613 117.256 50.352C117.64 49.2 118.024 48.048 118.408 46.896C118.792 45.744 119.133 44.6133 119.432 43.504C119.773 42.3947 120.072 41.3493 120.328 40.368C120.456 39.6 120.328 39.216 119.944 39.216C119.603 39.216 119.197 39.4507 118.728 39.92C118.259 40.3893 117.789 40.944 117.32 41.584C117.192 41.6693 117.064 41.6693 116.936 41.584C116.808 41.456 116.787 41.328 116.872 41.2C117.512 40.2187 118.28 39.3867 119.176 38.704C120.072 37.9787 121.032 37.616 122.056 37.616C122.739 37.616 123.187 37.8293 123.4 38.256C123.656 38.6827 123.72 39.1947 123.592 39.792C123.421 40.7307 123.251 41.52 123.08 42.16C122.909 42.8 122.675 43.5253 122.376 44.336C123.485 42.3733 124.701 40.7733 126.024 39.536C127.389 38.256 128.84 37.616 130.376 37.616C131.144 37.616 131.72 37.8293 132.104 38.256C132.531 38.6827 132.744 39.1947 132.744 39.792C132.744 41.456 132.445 43.1413 131.848 44.848C133.213 42.5013 134.536 40.7093 135.816 39.472C137.139 38.2347 138.717 37.616 140.552 37.616C141.405 37.616 142.003 37.8507 142.344 38.32C142.728 38.7467 142.92 39.1947 142.92 39.664C142.92 40.3893 142.749 41.2 142.408 42.096C142.109 42.9493 141.747 43.8667 141.32 44.848C140.936 45.7867 140.573 46.7467 140.232 47.728C139.933 48.6667 139.784 49.584 139.784 50.48C139.784 51.5467 140.125 52.08 140.808 52.08C141.491 52.08 142.408 51.376 143.56 49.968C143.688 49.8827 143.795 49.904 143.88 50.032C144.008 50.16 144.029 50.3093 143.944 50.48C143.091 51.5467 142.216 52.4 141.32 53.04C140.424 53.68 139.549 54 138.696 54C137.288 54 136.584 53.1893 136.584 51.568C136.584 50.544 136.733 49.52 137.032 48.496C137.331 47.4293 137.651 46.4267 137.992 45.488C138.376 44.5067 138.717 43.5893 139.016 42.736C139.315 41.8827 139.464 41.1573 139.464 40.56ZM159.299 37.616C160.237 37.616 160.984 38.0853 161.539 39.024C162.136 39.92 162.435 40.9867 162.435 42.224C162.435 43.9733 162.072 45.5733 161.347 47.024C160.664 48.432 159.747 49.6693 158.595 50.736C157.443 51.76 156.12 52.5707 154.627 53.168C153.133 53.7227 151.619 54 150.083 54C149.357 54 148.739 53.9147 148.227 53.744C147.501 55.8347 146.84 58.0747 146.243 60.464C145.688 62.8533 145.411 65.072 145.411 67.12C145.411 68.1013 145.88 68.4853 146.819 68.272C147.16 68.2293 147.48 68.144 147.779 68.016C148.12 67.888 148.44 67.7173 148.739 67.504C148.909 67.504 148.995 67.5893 148.995 67.76C149.037 67.9307 149.016 68.1013 148.931 68.272C148.675 68.4 148.291 68.528 147.779 68.656C147.309 68.8267 146.797 68.976 146.243 69.104C145.688 69.2747 145.133 69.4027 144.579 69.488C144.024 69.5733 143.555 69.616 143.171 69.616C142.829 69.616 142.552 69.5307 142.339 69.36C142.125 69.1893 142.019 68.9333 142.019 68.592C142.019 66.416 142.381 63.8773 143.107 60.976C143.789 58.1173 144.685 55.152 145.795 52.08C145.539 51.7387 145.389 51.4613 145.347 51.248C145.304 51.0773 145.624 50.8853 146.307 50.672C146.861 49.136 147.459 47.6 148.099 46.064C148.739 44.528 149.379 43.0133 150.019 41.52C150.829 39.7707 151.192 38.6827 151.107 38.256C151.064 37.8293 150.808 37.744 150.339 38C149.699 38.3413 148.995 38.9387 148.227 39.792C148.141 39.8773 148.035 39.856 147.907 39.728C147.821 39.5573 147.8 39.4293 147.843 39.344C148.141 39.0027 148.525 38.64 148.995 38.256C149.464 37.8293 149.955 37.4453 150.467 37.104C151.021 36.7627 151.555 36.4853 152.067 36.272C152.579 36.016 153.027 35.888 153.411 35.888C153.88 35.888 154.179 36.1013 154.307 36.528C154.477 36.912 154.456 37.3387 154.243 37.808C153.688 39.3013 152.963 40.9867 152.067 42.864C152.493 42.2667 152.984 41.6693 153.539 41.072C154.093 40.432 154.669 39.856 155.267 39.344C155.907 38.832 156.568 38.4267 157.251 38.128C157.933 37.7867 158.616 37.616 159.299 37.616ZM151.683 52.72C152.707 52.72 153.667 52.528 154.563 52.144C155.459 51.7173 156.227 51.12 156.867 50.352C157.549 49.5413 158.083 48.56 158.467 47.408C158.893 46.2133 159.107 44.848 159.107 43.312C159.107 42.288 158.915 41.456 158.531 40.816C158.147 40.176 157.592 39.856 156.867 39.856C155.885 39.856 154.712 40.7307 153.347 42.48C151.981 44.2293 150.723 46.6827 149.571 49.84C149.443 50.1813 149.315 50.544 149.187 50.928C149.059 51.2693 148.931 51.632 148.803 52.016C149.485 52.4853 150.445 52.72 151.683 52.72ZM192.382 6.448C193.022 6.448 193.534 6.61867 193.918 6.96C194.344 7.25866 194.622 7.68533 194.75 8.24C194.92 8.752 194.942 9.34933 194.814 10.032C194.728 10.7147 194.494 11.3973 194.11 12.08C194.024 12.1653 193.918 12.1653 193.79 12.08C193.662 11.9947 193.576 11.888 193.534 11.76C193.619 11.248 193.427 10.8213 192.958 10.48C192.531 10.1387 191.848 9.968 190.91 9.968C189.16 9.968 187.39 10.6293 185.598 11.952C183.848 13.232 182.142 14.9387 180.478 17.072C178.814 19.2053 177.256 21.6587 175.806 24.432C174.355 27.2053 173.096 30.064 172.03 33.008C170.963 35.952 170.11 38.8747 169.47 41.776C168.872 44.6773 168.574 47.3227 168.574 49.712C168.574 50.992 168.936 51.632 169.662 51.632C170.174 51.632 170.664 51.4187 171.134 50.992C171.646 50.5653 172.222 49.9253 172.862 49.072C172.99 48.9867 173.096 49.008 173.182 49.136C173.31 49.2213 173.352 49.3493 173.31 49.52C172.456 50.8 171.454 51.8667 170.302 52.72C169.15 53.5733 168.104 54 167.166 54C166.355 54 165.779 53.7653 165.438 53.296C165.139 52.8267 164.99 52.2293 164.99 51.504C164.99 49.4987 165.416 47.0027 166.27 44.016C167.123 40.9867 168.254 37.808 169.662 34.48C171.112 31.1093 172.776 27.76 174.654 24.432C176.531 21.104 178.472 18.1173 180.478 15.472C182.526 12.784 184.574 10.608 186.622 8.944C188.67 7.28 190.59 6.448 192.382 6.448ZM187.863 40.816C187.863 43.248 184.641 44.912 178.199 45.808C178.156 46.2347 178.113 46.6613 178.071 47.088C178.071 47.5147 178.071 47.9627 178.071 48.432C178.071 49.5413 178.327 50.3947 178.839 50.992C179.351 51.5893 180.161 51.888 181.271 51.888C182.081 51.888 182.913 51.6533 183.767 51.184C184.62 50.7147 185.303 50.1173 185.815 49.392C185.985 49.3067 186.113 49.3493 186.199 49.52C186.284 49.648 186.305 49.7973 186.263 49.968C185.409 51.0773 184.321 52.0373 182.999 52.848C181.719 53.616 180.332 54 178.839 54C177.345 54 176.257 53.6373 175.575 52.912C174.935 52.144 174.615 51.0773 174.615 49.712C174.615 48.3893 174.892 47.024 175.447 45.616C176.001 44.1653 176.705 42.8427 177.559 41.648C178.455 40.4533 179.457 39.4933 180.567 38.768C181.719 38 182.871 37.616 184.023 37.616C185.175 37.616 186.092 37.9573 186.775 38.64C187.5 39.28 187.863 40.0053 187.863 40.816ZM182.295 39.28C181.313 39.28 180.46 39.7493 179.735 40.688C179.052 41.584 178.583 42.992 178.327 44.912C180.375 44.6987 181.889 44.3147 182.871 43.76C183.852 43.1627 184.343 42.4373 184.343 41.584C184.343 40.944 184.151 40.4107 183.767 39.984C183.383 39.5147 182.892 39.28 182.295 39.28ZM243.075 12.912C245.038 13.168 246.808 13.6587 248.387 14.384C249.966 15.1093 251.288 16.0267 252.355 17.136C253.464 18.2027 254.318 19.44 254.915 20.848C255.512 22.2133 255.811 23.664 255.811 25.2C255.811 27.2053 255.406 29.0827 254.595 30.832C253.827 32.5813 252.718 34.096 251.267 35.376C249.859 36.656 248.131 37.68 246.083 38.448C244.035 39.1733 241.731 39.536 239.171 39.536C236.398 39.536 234.094 38.8533 232.259 37.488C229.571 43.248 226.414 47.4507 222.787 50.096C219.16 52.6987 215.256 54 211.075 54C207.534 54 204.91 53.1253 203.203 51.376C201.539 49.584 200.707 47.344 200.707 44.656C200.707 43.8453 200.835 43.0347 201.091 42.224C201.39 41.3707 201.795 40.5813 202.307 39.856C202.819 39.088 203.438 38.4053 204.163 37.808C204.931 37.2107 205.784 36.72 206.723 36.336C206.851 36.2507 206.958 36.2507 207.043 36.336C207.171 36.4213 207.192 36.5707 207.107 36.784C205.827 37.4667 204.888 38.384 204.291 39.536C203.694 40.688 203.395 41.9253 203.395 43.248C203.395 44.4 203.587 45.5093 203.971 46.576C204.355 47.6 204.952 48.496 205.763 49.264C206.616 50.032 207.683 50.6507 208.963 51.12C210.243 51.5467 211.779 51.76 213.571 51.76C215.619 51.76 217.411 51.504 218.947 50.992C220.483 50.48 221.87 49.584 223.107 48.304C224.387 47.024 225.539 45.296 226.563 43.12C227.63 40.9013 228.696 38.1067 229.763 34.736C228.995 33.4987 228.462 32.1547 228.163 30.704C228.206 30.5333 228.291 30.4053 228.419 30.32C228.547 30.2347 228.654 30.256 228.739 30.384C229.038 31.6213 229.486 32.7307 230.083 33.712C230.254 33.1573 230.403 32.5813 230.531 31.984C230.702 31.3867 230.872 30.7893 231.043 30.192C232.11 26.3947 233.283 23.2373 234.563 20.72C235.843 18.2027 237.294 16.176 238.915 14.64C238.702 14.5973 238.382 14.576 237.955 14.576C233.432 14.576 229.635 15.6213 226.563 17.712C223.491 19.76 221.336 22.9173 220.099 27.184C219.971 27.312 219.822 27.3333 219.651 27.248C219.523 27.12 219.459 26.9067 219.459 26.608C220.91 22.3413 223.32 18.9707 226.691 16.496C230.104 14.0213 234.584 12.784 240.131 12.784H241.155C242.776 11.7173 244.59 10.928 246.595 10.416C246.808 10.416 246.915 10.5227 246.915 10.736C246.915 10.9067 246.808 11.0347 246.595 11.12C245.315 11.504 244.142 12.1013 243.075 12.912ZM239.875 38.256C241.667 38.256 243.288 37.9573 244.739 37.36C246.19 36.7627 247.427 35.9307 248.451 34.864C249.518 33.7973 250.328 32.56 250.883 31.152C251.438 29.744 251.715 28.2293 251.715 26.608C251.715 23.5787 250.798 21.0187 248.963 18.928C247.171 16.7947 244.59 15.4293 241.219 14.832C239.086 17.52 237.315 21.616 235.907 27.12C235.438 28.8693 234.926 30.5333 234.371 32.112C233.859 33.648 233.304 35.0987 232.707 36.464C234.456 37.6587 236.846 38.256 239.875 38.256ZM279.382 6.448C280.022 6.448 280.534 6.61867 280.918 6.96C281.344 7.25866 281.622 7.68533 281.75 8.24C281.92 8.752 281.942 9.34933 281.814 10.032C281.728 10.7147 281.494 11.3973 281.11 12.08C281.024 12.1653 280.918 12.1653 280.79 12.08C280.662 11.9947 280.576 11.888 280.534 11.76C280.619 11.248 280.427 10.8213 279.958 10.48C279.531 10.1387 278.848 9.968 277.91 9.968C276.16 9.968 274.39 10.6293 272.598 11.952C270.848 13.232 269.142 14.9387 267.478 17.072C265.814 19.2053 264.256 21.6587 262.806 24.432C261.355 27.2053 260.096 30.064 259.03 33.008C257.963 35.952 257.11 38.8747 256.47 41.776C255.872 44.6773 255.574 47.3227 255.574 49.712C255.574 50.992 255.936 51.632 256.662 51.632C257.174 51.632 257.664 51.4187 258.134 50.992C258.646 50.5653 259.222 49.9253 259.862 49.072C259.99 48.9867 260.096 49.008 260.182 49.136C260.31 49.2213 260.352 49.3493 260.31 49.52C259.456 50.8 258.454 51.8667 257.302 52.72C256.15 53.5733 255.104 54 254.166 54C253.355 54 252.779 53.7653 252.438 53.296C252.139 52.8267 251.99 52.2293 251.99 51.504C251.99 49.4987 252.416 47.0027 253.27 44.016C254.123 40.9867 255.254 37.808 256.662 34.48C258.112 31.1093 259.776 27.76 261.654 24.432C263.531 21.104 265.472 18.1173 267.478 15.472C269.526 12.784 271.574 10.608 273.622 8.944C275.67 7.28 277.59 6.448 279.382 6.448ZM279.151 49.968C279.236 49.8827 279.343 49.8827 279.471 49.968C279.599 50.0533 279.641 50.1813 279.599 50.352C278.831 51.4613 277.977 52.3573 277.039 53.04C276.1 53.68 275.204 54 274.351 54C273.369 54 272.729 53.3173 272.431 51.952C272.175 50.544 272.324 48.88 272.879 46.96C271.727 48.7947 270.468 50.3733 269.103 51.696C267.78 52.976 266.372 53.744 264.879 54C263.855 54 263.065 53.5307 262.511 52.592C261.956 51.6533 261.679 50.5653 261.679 49.328C261.679 47.92 262.02 46.5333 262.703 45.168C263.385 43.76 264.281 42.5013 265.391 41.392C266.543 40.2827 267.801 39.3867 269.167 38.704C270.575 37.9787 271.983 37.616 273.391 37.616C274.884 37.616 276.057 37.9787 276.911 38.704C277.337 38.4053 277.871 38.1493 278.511 37.936C279.193 37.7227 279.791 37.616 280.303 37.616C280.473 37.616 280.559 37.7227 280.559 37.936C279.577 39.1307 278.724 40.4533 277.999 41.904C277.316 43.312 276.783 44.6773 276.399 46C276.015 47.28 275.78 48.432 275.695 49.456C275.609 50.48 275.695 51.184 275.951 51.568C276.164 51.824 276.527 51.9093 277.039 51.824C277.551 51.696 278.255 51.0773 279.151 49.968ZM266.863 51.632C267.375 51.632 267.993 51.312 268.719 50.672C269.487 50.032 270.276 49.1787 271.087 48.112C271.897 47.0453 272.687 45.8507 273.455 44.528C274.265 43.2053 274.969 41.8613 275.567 40.496C275.396 39.9413 274.991 39.4933 274.351 39.152C273.753 38.8107 273.049 38.64 272.239 38.64C271.257 38.64 270.34 38.896 269.487 39.408C268.633 39.8773 267.887 40.56 267.247 41.456C266.649 42.3093 266.159 43.3547 265.775 44.592C265.433 45.7867 265.263 47.1093 265.263 48.56C265.263 49.4987 265.412 50.2453 265.711 50.8C266.052 51.3547 266.436 51.632 266.863 51.632ZM294.84 37.936C295.053 38.0213 295.139 38.1493 295.096 38.32C295.053 38.448 294.861 38.5547 294.52 38.64C293.88 38.64 293.133 38.6613 292.28 38.704C291.469 38.7467 290.595 38.8107 289.656 38.896C288.803 40.9867 288.099 43.0347 287.544 45.04C286.989 47.0027 286.712 48.6027 286.712 49.84C286.712 51.2907 287.267 52.016 288.376 52.016C289.485 52.016 290.723 51.056 292.088 49.136C292.216 49.0507 292.323 49.0507 292.408 49.136C292.536 49.2213 292.579 49.3707 292.536 49.584C291.811 50.7787 290.893 51.824 289.784 52.72C288.675 53.5733 287.587 54 286.52 54C285.411 54 284.579 53.744 284.024 53.232C283.512 52.6773 283.256 51.9307 283.256 50.992C283.256 49.7547 283.555 48.048 284.152 45.872C284.749 43.696 285.517 41.4773 286.456 39.216C285.347 39.344 284.323 39.5147 283.384 39.728C283.171 39.6853 283.107 39.5787 283.192 39.408C283.32 39.2373 283.512 39.0667 283.768 38.896C284.067 38.6827 284.408 38.512 284.792 38.384C285.176 38.2133 285.539 38.128 285.88 38.128C286.051 38.128 286.221 38.128 286.392 38.128C286.563 38.128 286.733 38.1067 286.904 38.064C287.459 36.8267 288.035 35.632 288.632 34.48C289.229 33.328 289.827 32.2827 290.424 31.344C290.68 31.0453 291.021 30.7893 291.448 30.576C291.917 30.32 292.365 30.128 292.792 30C293.219 29.872 293.56 29.808 293.816 29.808C294.115 29.7653 294.243 29.8293 294.2 30C293.475 31.1093 292.749 32.3467 292.024 33.712C291.341 35.0773 290.68 36.5067 290.04 38C290.851 37.9573 291.661 37.936 292.472 37.936C293.325 37.936 294.115 37.936 294.84 37.936ZM307.738 40.816C307.738 43.248 304.516 44.912 298.074 45.808C298.031 46.2347 297.988 46.6613 297.946 47.088C297.946 47.5147 297.946 47.9627 297.946 48.432C297.946 49.5413 298.202 50.3947 298.714 50.992C299.226 51.5893 300.036 51.888 301.146 51.888C301.956 51.888 302.788 51.6533 303.642 51.184C304.495 50.7147 305.178 50.1173 305.69 49.392C305.86 49.3067 305.988 49.3493 306.074 49.52C306.159 49.648 306.18 49.7973 306.138 49.968C305.284 51.0773 304.196 52.0373 302.874 52.848C301.594 53.616 300.207 54 298.714 54C297.22 54 296.132 53.6373 295.45 52.912C294.81 52.144 294.49 51.0773 294.49 49.712C294.49 48.3893 294.767 47.024 295.322 45.616C295.876 44.1653 296.58 42.8427 297.434 41.648C298.33 40.4533 299.332 39.4933 300.442 38.768C301.594 38 302.746 37.616 303.898 37.616C305.05 37.616 305.967 37.9573 306.65 38.64C307.375 39.28 307.738 40.0053 307.738 40.816ZM302.17 39.28C301.188 39.28 300.335 39.7493 299.61 40.688C298.927 41.584 298.458 42.992 298.202 44.912C300.25 44.6987 301.764 44.3147 302.746 43.76C303.727 43.1627 304.218 42.4373 304.218 41.584C304.218 40.944 304.026 40.4107 303.642 39.984C303.258 39.5147 302.767 39.28 302.17 39.28Z" fill="#0A267D"/>
</g>
<defs>
<clipPath id="clip0">
<rect width="312" height="74" fill="white"/>
</clipPath>
</defs>
</svg>
