<svg width="32" height="32" viewBox="0 0 32 32" fill="none" xmlns="http://www.w3.org/2000/svg">
<path d="M25.2292 24.0642C27.5966 21.4211 28.9055 17.9969 28.9049 14.4484C28.9049 6.48165 22.4233 7.42036e-06 14.4565 7.42036e-06C6.48164 -0.00800489 0 6.47363 0 14.4401C0 22.4069 6.48164 28.8885 14.4484 28.8885C17.9979 28.8946 21.4236 27.5851 24.0642 25.2128L30.5948 31.7438C30.749 31.8986 30.9592 31.9845 31.1775 31.9816C31.3951 31.9807 31.6041 31.8954 31.7602 31.7438C31.9137 31.5903 31.9999 31.3823 31.9999 31.1653C31.9999 30.9484 31.9137 30.74 31.7602 30.5868L25.2292 24.0642ZM14.4484 27.2556C7.38414 27.2556 1.64092 21.5044 1.64092 14.4401C1.64092 7.37614 7.38414 1.63292 14.4484 1.63292C21.5124 1.63292 27.2556 7.37614 27.2556 14.4401C27.2556 21.5044 21.5124 27.2556 14.4484 27.2556Z" fill="#0A267D"/>
</svg>
